<svg width="206" height="154" viewBox="0 0 206 154" fill="none" xmlns="http://www.w3.org/2000/svg">
<path d="M176.285 38.7239C174.265 37.6235 173.346 38.5382 172.612 37.6235C171.879 36.7088 174.632 34.3179 169.125 31.9315C169.125 31.9315 168.759 26.7919 161.233 26.6062C153.707 26.4206 155.708 31.7458 153.702 33.0318C151.696 34.3179 151.135 32.2983 149.115 33.5843C147.095 34.8703 148.015 37.4378 146.362 37.8046C144.709 38.1714 142.504 36.1518 140.475 37.4378C138.446 38.7239 138.46 39.8242 137.541 39.8242C136.622 39.8242 134.788 39.0907 133.683 39.8242C132.578 40.5578 131.296 41.4771 131.296 41.4771H177.752C177.752 41.4771 178.304 39.8242 176.285 38.7239Z" fill="white" stroke="#3A4646" stroke-linecap="round" stroke-linejoin="round"/>
<path d="M59.8358 65.898C58.8169 65.341 58.3505 65.8029 57.9792 65.341C57.6079 64.8791 59.0026 63.6701 56.2177 62.4656C56.2177 62.4656 56.0321 59.8709 52.2328 59.7803C48.4336 59.6897 49.4525 62.375 48.4291 63.0226C47.4057 63.6701 47.134 62.6512 46.1152 63.3033C45.0963 63.9554 45.5582 65.2505 44.7205 65.4361C43.8827 65.6218 42.7733 64.5984 41.7544 65.2505C40.7356 65.9025 40.7356 66.455 40.2737 66.455C39.8118 66.455 38.879 66.0837 38.3265 66.455C37.7741 66.8263 37.1175 67.2882 37.1175 67.2882H60.5784C60.5784 67.2882 60.8547 66.455 59.8358 65.898Z" fill="white" stroke="#3A4646" stroke-linecap="round" stroke-linejoin="round"/>
<path d="M102.401 25.5964C101.383 25.0394 100.916 25.5013 100.545 25.0394C100.174 24.5776 101.568 23.3685 98.7834 22.164C98.7834 22.164 98.5977 19.5693 94.7985 19.4787C90.9993 19.3882 92.0182 22.0734 90.9948 22.721C89.9714 23.3685 89.6997 22.3497 88.6808 23.0017C87.662 23.6538 88.1238 24.9489 87.2861 25.1345C86.4484 25.3202 85.339 24.2968 84.3201 24.9489C83.3013 25.601 83.3013 26.1534 82.8394 26.1534C82.3775 26.1534 81.4447 25.7821 80.8922 26.1534C80.3398 26.5247 79.6832 26.9866 79.6832 26.9866H103.144C103.144 26.9866 103.42 26.1534 102.401 25.5964Z" fill="white" stroke="#3A4646" stroke-linecap="round" stroke-linejoin="round"/>
<path d="M163.302 148.38H185.142C184.725 145.713 183.009 146.184 182.783 142.041C182.669 139.958 184.594 137.381 184.431 134.646C184.291 132.382 182.067 130.082 181.895 127.501C181.741 125.173 183.639 122.592 183.453 120.083C183.281 117.715 181.026 115.437 180.826 112.974C180.627 110.51 182.488 107.961 182.271 105.534C182.054 103.107 179.758 100.865 179.518 98.4698C179.278 96.0743 181.062 93.3574 180.79 90.9982C180.496 88.4986 178.137 86.334 177.815 84.0292C177.457 81.4616 179.133 78.722 178.721 76.5077C178.241 73.7907 175.714 71.8255 175.184 69.824C174.193 66.0927 174.315 62.4927 173.147 62.2618C171.897 62.0082 171.611 65.5357 170.665 69.4753C170.212 71.4587 167.717 73.4647 167.314 76.1817C166.984 78.3824 168.731 81.0541 168.446 83.6126C168.188 85.8993 165.888 88.1001 165.666 90.5906C165.453 92.9317 167.323 95.5128 167.138 97.9581C166.952 100.403 164.724 102.609 164.57 105.022C164.416 107.436 166.341 109.972 166.209 112.353C166.078 114.735 163.886 117.108 163.773 119.463C163.655 121.949 165.616 124.444 165.521 126.767C165.417 129.325 163.257 131.671 163.175 133.908C163.076 136.625 165.068 139.125 165.009 141.189C164.873 145.677 162.822 144.749 162.745 148.358L163.302 148.38Z" fill="#C1CB9C"/>
<path opacity="0.5" d="M163.302 148.38H185.142C184.725 145.713 183.009 146.184 182.783 142.041C182.669 139.958 184.594 137.381 184.431 134.646C184.291 132.382 182.067 130.082 181.895 127.501C181.741 125.173 183.639 122.592 183.453 120.083C183.281 117.715 181.026 115.437 180.826 112.974C180.627 110.51 182.488 107.961 182.271 105.534C182.054 103.107 179.758 100.865 179.518 98.4698C179.278 96.0743 181.062 93.3574 180.79 90.9982C180.496 88.4986 178.137 86.334 177.815 84.0292C177.457 81.4616 179.133 78.722 178.721 76.5077C178.241 73.7907 175.714 71.8255 175.184 69.824C174.193 66.0927 174.315 62.4927 173.147 62.2618C171.897 62.0082 171.611 65.5357 170.665 69.4753C170.212 71.4587 167.717 73.4647 167.314 76.1817C166.984 78.3824 168.731 81.0541 168.446 83.6126C168.188 85.8993 165.888 88.1001 165.666 90.5906C165.453 92.9317 167.323 95.5128 167.138 97.9581C166.952 100.403 164.724 102.609 164.57 105.022C164.416 107.436 166.341 109.972 166.209 112.353C166.078 114.735 163.886 117.108 163.773 119.463C163.655 121.949 165.616 124.444 165.521 126.767C165.417 129.325 163.257 131.671 163.175 133.908C163.076 136.625 165.068 139.125 165.009 141.189C164.873 145.677 162.822 144.749 162.745 148.358L163.302 148.38Z" fill="white"/>
<path d="M172.671 69.4391V147.375" stroke="#3A4646" stroke-miterlimit="10"/>
<path d="M176.076 77.608L172.526 80.6737L169.619 76.7975" stroke="#3A4646" stroke-miterlimit="10"/>
<path d="M176.076 91.1748L172.526 94.2404L169.619 90.3642" stroke="#3A4646" stroke-miterlimit="10"/>
<path d="M176.076 103.931L172.526 107.001L169.619 103.125" stroke="#3A4646" stroke-miterlimit="10"/>
<path d="M176.076 119.114L172.526 122.18L169.619 118.304" stroke="#3A4646" stroke-miterlimit="10"/>
<path d="M176.076 134.456L172.526 137.522L169.619 133.645" stroke="#3A4646" stroke-miterlimit="10"/>
<path d="M16.2377 148.38H38.0639C37.6428 145.713 35.9311 146.184 35.7001 142.041C35.5869 139.958 37.5115 137.381 37.3484 134.646C37.2126 132.382 34.9892 130.082 34.8171 127.5C34.6586 125.173 36.556 122.592 36.3749 120.083C36.1983 117.715 33.9477 115.437 33.7485 112.974C33.5492 110.51 35.4103 107.961 35.193 105.534C34.9756 103.107 32.6798 100.865 32.4353 98.4698C32.1907 96.0743 33.9839 93.3574 33.7077 90.9982C33.4179 88.4985 31.0541 86.334 30.7372 84.0291C30.3794 81.4616 32.0504 78.722 31.6428 76.5077C31.1628 73.7907 28.6361 71.8255 28.1017 69.824C27.1463 66.1153 27.2685 62.4927 26.1002 62.2663C24.8504 62.0127 24.5651 65.5402 23.6187 69.4798C23.1659 71.4632 20.6708 73.4692 20.2633 76.1862C19.9373 78.3869 21.6852 81.0586 21.3954 83.6171C21.1418 85.9038 18.8414 88.1046 18.615 90.5951C18.4067 92.9362 20.2723 95.5173 20.0912 97.9626C19.9101 100.408 17.6777 102.613 17.5237 105.027C17.3697 107.44 19.2942 109.976 19.1629 112.358C19.0316 114.74 16.8354 117.113 16.7222 119.467C16.6045 121.953 18.5697 124.448 18.4746 126.771C18.3659 129.33 16.2105 131.676 16.1245 133.913C16.0294 136.629 18.0218 139.129 17.9358 141.194C17.8044 145.681 15.7486 144.753 15.6716 148.362L16.2377 148.38Z" fill="#C1CB9C"/>
<path opacity="0.5" d="M16.2377 148.38H38.0639C37.6428 145.713 35.9311 146.184 35.7001 142.041C35.5869 139.958 37.5115 137.381 37.3484 134.646C37.2126 132.382 34.9892 130.082 34.8171 127.5C34.6586 125.173 36.556 122.592 36.3749 120.083C36.1983 117.715 33.9477 115.437 33.7485 112.974C33.5492 110.51 35.4103 107.961 35.193 105.534C34.9756 103.107 32.6798 100.865 32.4353 98.4698C32.1907 96.0743 33.9839 93.3574 33.7077 90.9982C33.4179 88.4985 31.0541 86.334 30.7372 84.0291C30.3794 81.4616 32.0504 78.722 31.6428 76.5077C31.1628 73.7907 28.6361 71.8255 28.1017 69.824C27.1463 66.1153 27.2685 62.4927 26.1002 62.2663C24.8504 62.0127 24.5651 65.5402 23.6187 69.4798C23.1659 71.4632 20.6708 73.4692 20.2633 76.1862C19.9373 78.3869 21.6852 81.0586 21.3954 83.6171C21.1418 85.9038 18.8414 88.1046 18.615 90.5951C18.4067 92.9362 20.2723 95.5173 20.0912 97.9626C19.9101 100.408 17.6777 102.613 17.5237 105.027C17.3697 107.44 19.2942 109.976 19.1629 112.358C19.0316 114.74 16.8354 117.113 16.7222 119.467C16.6045 121.953 18.5697 124.448 18.4746 126.771C18.3659 129.33 16.2105 131.676 16.1245 133.913C16.0294 136.629 18.0218 139.129 17.9358 141.194C17.8044 145.681 15.7486 144.753 15.6716 148.362L16.2377 148.38Z" fill="white"/>
<path d="M25.6202 69.4391V147.375" stroke="#3A4646" stroke-miterlimit="10"/>
<path d="M29.03 77.608L25.4753 80.6737L22.5682 76.7975" stroke="#3A4646" stroke-miterlimit="10"/>
<path d="M29.03 91.1748L25.4753 94.2404L22.5682 90.3642" stroke="#3A4646" stroke-miterlimit="10"/>
<path d="M29.03 103.931L25.4753 107.001L22.5682 103.125" stroke="#3A4646" stroke-miterlimit="10"/>
<path d="M29.03 119.114L25.4753 122.18L22.5682 118.304" stroke="#3A4646" stroke-miterlimit="10"/>
<path d="M29.03 134.456L25.4753 137.522L22.5682 133.645" stroke="#3A4646" stroke-miterlimit="10"/>
<path d="M131.124 148.38H147.426C147.114 146.388 145.832 146.741 145.665 143.648C145.578 142.095 147.023 140.171 146.892 138.124C146.792 136.439 145.13 134.714 145.003 132.79C144.886 131.051 146.303 129.122 146.163 127.251C146.036 125.476 144.351 123.778 144.202 121.94C144.052 120.101 145.443 118.19 145.293 116.379C145.144 114.568 143.414 112.897 143.233 111.108C143.052 109.32 144.388 107.286 144.184 105.525C143.966 103.655 142.2 102.043 141.965 100.322C141.698 98.4019 142.948 96.3551 142.653 94.7023C142.295 92.6736 140.389 91.2065 140.009 89.7212C139.257 86.9454 139.348 84.2284 138.501 84.0609C137.654 83.8933 137.355 86.5061 136.644 89.4495C136.291 90.9302 134.443 92.4291 134.14 94.4578C133.896 96.1015 135.2 98.0804 134.987 100.009C134.797 101.717 133.076 103.36 132.908 105.221C132.75 106.969 134.149 108.898 134.009 110.723C133.868 112.548 132.197 114.196 132.093 115.999C131.989 117.801 133.416 119.694 133.32 121.478C133.225 123.262 131.582 125.028 131.509 126.785C131.423 128.642 132.868 130.516 132.818 132.219C132.736 134.13 131.124 135.882 131.061 137.549C130.993 139.577 132.478 141.448 132.419 142.983C132.32 146.334 130.785 145.641 130.73 148.335L131.124 148.38Z" fill="#C1CB9C"/>
<path opacity="0.5" d="M131.124 148.38H147.426C147.114 146.388 145.832 146.741 145.665 143.648C145.578 142.095 147.023 140.171 146.892 138.124C146.792 136.439 145.13 134.714 145.003 132.79C144.886 131.051 146.303 129.122 146.163 127.251C146.036 125.476 144.351 123.778 144.202 121.94C144.052 120.101 145.443 118.19 145.293 116.379C145.144 114.568 143.414 112.897 143.233 111.108C143.052 109.32 144.388 107.286 144.184 105.525C143.966 103.655 142.2 102.043 141.965 100.322C141.698 98.4019 142.948 96.3551 142.653 94.7023C142.295 92.6736 140.389 91.2065 140.009 89.7212C139.257 86.9454 139.348 84.2284 138.501 84.0609C137.654 83.8933 137.355 86.5061 136.644 89.4495C136.291 90.9302 134.443 92.4291 134.14 94.4578C133.896 96.1015 135.2 98.0804 134.987 100.009C134.797 101.717 133.076 103.36 132.908 105.221C132.75 106.969 134.149 108.898 134.009 110.723C133.868 112.548 132.197 114.196 132.093 115.999C131.989 117.801 133.416 119.694 133.32 121.478C133.225 123.262 131.582 125.028 131.509 126.785C131.423 128.642 132.868 130.516 132.818 132.219C132.736 134.13 131.124 135.882 131.061 137.549C130.993 139.577 132.478 141.448 132.419 142.983C132.32 146.334 130.785 145.641 130.73 148.335L131.124 148.38Z" fill="white"/>
<path d="M138.12 89.4178V147.629" stroke="#3A4646" stroke-miterlimit="10"/>
<path d="M140.665 95.5219L138.012 97.8132L135.838 94.9151" stroke="#3A4646" stroke-miterlimit="10"/>
<path d="M140.665 105.652L138.012 107.943L135.838 105.049" stroke="#3A4646" stroke-miterlimit="10"/>
<path d="M140.665 115.184L138.012 117.475L135.838 114.577" stroke="#3A4646" stroke-miterlimit="10"/>
<path d="M140.665 126.518L138.012 128.814L135.838 125.916" stroke="#3A4646" stroke-miterlimit="10"/>
<path d="M140.665 137.979L138.012 140.27L135.838 137.377" stroke="#3A4646" stroke-miterlimit="10"/>
<path d="M183.199 148.38H199.501C199.189 146.388 197.907 146.741 197.74 143.648C197.654 142.095 199.098 140.171 198.967 138.124C198.867 136.439 197.205 134.714 197.078 132.79C196.961 131.051 198.378 129.122 198.238 127.251C198.111 125.476 196.426 123.778 196.277 121.94C196.128 120.101 197.518 118.19 197.368 116.379C197.219 114.568 195.489 112.897 195.308 111.108C195.127 109.32 196.463 107.286 196.259 105.525C196.041 103.655 194.275 102.043 194.04 100.322C193.773 98.4019 195.023 96.3551 194.728 94.7023C194.371 92.6736 192.464 91.2065 192.084 89.7212C191.332 86.9454 191.423 84.2284 190.576 84.0609C189.729 83.8933 189.43 86.5061 188.719 89.4495C188.366 90.9302 186.519 92.4291 186.215 94.4578C185.971 96.1015 187.275 98.0804 187.062 100.009C186.872 101.717 185.151 103.36 184.983 105.221C184.825 106.969 186.224 108.898 186.084 110.723C185.943 112.548 184.273 114.196 184.168 115.999C184.064 117.801 185.491 119.694 185.396 121.478C185.3 123.262 183.657 125.028 183.584 126.785C183.498 128.642 184.943 130.516 184.893 132.219C184.811 134.13 183.199 135.882 183.136 137.549C183.068 139.577 184.553 141.448 184.494 142.983C184.395 146.334 182.86 145.641 182.805 148.335L183.199 148.38Z" fill="#C1CB9C"/>
<path opacity="0.5" d="M183.199 148.38H199.501C199.189 146.388 197.907 146.741 197.74 143.648C197.654 142.095 199.098 140.171 198.967 138.124C198.867 136.439 197.205 134.714 197.078 132.79C196.961 131.051 198.378 129.122 198.238 127.251C198.111 125.476 196.426 123.778 196.277 121.94C196.128 120.101 197.518 118.19 197.368 116.379C197.219 114.568 195.489 112.897 195.308 111.108C195.127 109.32 196.463 107.286 196.259 105.525C196.041 103.655 194.275 102.043 194.04 100.322C193.773 98.4019 195.023 96.3551 194.728 94.7023C194.371 92.6736 192.464 91.2065 192.084 89.7212C191.332 86.9454 191.423 84.2284 190.576 84.0609C189.729 83.8933 189.43 86.5061 188.719 89.4495C188.366 90.9302 186.519 92.4291 186.215 94.4578C185.971 96.1015 187.275 98.0804 187.062 100.009C186.872 101.717 185.151 103.36 184.983 105.221C184.825 106.969 186.224 108.898 186.084 110.723C185.943 112.548 184.273 114.196 184.168 115.999C184.064 117.801 185.491 119.694 185.396 121.478C185.3 123.262 183.657 125.028 183.584 126.785C183.498 128.642 184.943 130.516 184.893 132.219C184.811 134.13 183.199 135.882 183.136 137.549C183.068 139.577 184.553 141.448 184.494 142.983C184.395 146.334 182.86 145.641 182.805 148.335L183.199 148.38Z" fill="white"/>
<path d="M190.195 89.4178V147.629" stroke="#3A4646" stroke-miterlimit="10"/>
<path d="M192.74 95.5219L190.087 97.8132L187.913 94.9151" stroke="#3A4646" stroke-miterlimit="10"/>
<path d="M192.74 105.652L190.087 107.943L187.913 105.049" stroke="#3A4646" stroke-miterlimit="10"/>
<path d="M192.74 115.184L190.087 117.475L187.913 114.577" stroke="#3A4646" stroke-miterlimit="10"/>
<path d="M192.74 126.518L190.087 128.814L187.913 125.916" stroke="#3A4646" stroke-miterlimit="10"/>
<path d="M192.74 137.979L190.087 140.27L187.913 137.377" stroke="#3A4646" stroke-miterlimit="10"/>
<path d="M113.143 148.38H129.444C129.127 146.388 127.85 146.741 127.678 143.648C127.592 142.095 129.037 140.171 128.91 138.124C128.806 136.439 127.148 134.714 127.017 132.79C126.899 131.051 128.317 129.122 128.181 127.251C128.05 125.476 126.37 123.778 126.22 121.94C126.071 120.101 127.461 118.195 127.298 116.379C127.135 114.563 125.423 112.897 125.238 111.108C125.052 109.32 126.397 107.286 126.188 105.525C125.971 103.655 124.21 102.043 123.97 100.322C123.702 98.4019 124.952 96.3551 124.658 94.7023C124.3 92.6736 122.416 91.2065 122.018 89.7212C121.293 86.9454 121.379 84.2284 120.505 84.0609C119.632 83.8933 119.36 86.5061 118.653 89.4495C118.296 90.9302 116.453 92.4291 116.149 94.4578C115.9 96.1015 117.209 98.0804 116.992 100.009C116.801 101.717 115.085 103.36 114.918 105.221C114.759 106.969 116.154 108.898 116.018 110.723C115.882 112.548 114.207 114.196 114.098 115.999C113.989 117.801 115.425 119.694 115.325 121.478C115.226 123.262 113.586 125.028 113.514 126.785C113.423 128.642 114.872 130.516 114.818 132.219C114.741 134.13 113.124 135.882 113.066 137.549C112.993 139.577 114.483 141.448 114.424 142.983C114.324 146.334 112.794 145.641 112.74 148.335L113.143 148.38Z" fill="#C1CB9C"/>
<path opacity="0.5" d="M113.143 148.38H129.444C129.127 146.388 127.85 146.741 127.678 143.648C127.592 142.095 129.037 140.171 128.91 138.124C128.806 136.439 127.148 134.714 127.017 132.79C126.899 131.051 128.317 129.122 128.181 127.251C128.05 125.476 126.37 123.778 126.22 121.94C126.071 120.101 127.461 118.195 127.298 116.379C127.135 114.563 125.423 112.897 125.238 111.108C125.052 109.32 126.397 107.286 126.188 105.525C125.971 103.655 124.21 102.043 123.97 100.322C123.702 98.4019 124.952 96.3551 124.658 94.7023C124.3 92.6736 122.416 91.2065 122.018 89.7212C121.293 86.9454 121.379 84.2284 120.505 84.0609C119.632 83.8933 119.36 86.5061 118.653 89.4495C118.296 90.9302 116.453 92.4291 116.149 94.4578C115.9 96.1015 117.209 98.0804 116.992 100.009C116.801 101.717 115.085 103.36 114.918 105.221C114.759 106.969 116.154 108.898 116.018 110.723C115.882 112.548 114.207 114.196 114.098 115.999C113.989 117.801 115.425 119.694 115.325 121.478C115.226 123.262 113.586 125.028 113.514 126.785C113.423 128.642 114.872 130.516 114.818 132.219C114.741 134.13 113.124 135.882 113.066 137.549C112.993 139.577 114.483 141.448 114.424 142.983C114.324 146.334 112.794 145.641 112.74 148.335L113.143 148.38Z" fill="white"/>
<path d="M120.148 89.4178V147.629" stroke="#3A4646" stroke-miterlimit="10"/>
<path d="M122.693 95.5219L120.039 97.8132L117.87 94.9151" stroke="#3A4646" stroke-miterlimit="10"/>
<path d="M122.693 105.652L120.039 107.943L117.87 105.049" stroke="#3A4646" stroke-miterlimit="10"/>
<path d="M122.693 115.184L120.039 117.475L117.87 114.577" stroke="#3A4646" stroke-miterlimit="10"/>
<path d="M122.693 126.518L120.039 128.814L117.87 125.916" stroke="#3A4646" stroke-miterlimit="10"/>
<path d="M122.693 137.979L120.039 140.27L117.87 137.377" stroke="#3A4646" stroke-miterlimit="10"/>
<path d="M81.49 148.38H97.7917C97.4793 146.388 96.1978 146.741 96.0302 143.648C95.9442 142.095 97.3887 140.171 97.2574 138.124C97.1577 136.439 95.4959 134.714 95.3691 132.79C95.2514 131.051 96.6687 129.122 96.5329 127.251C96.4015 125.476 94.7215 123.778 94.5676 121.94C94.4136 120.101 95.8129 118.195 95.6498 116.379C95.4868 114.563 93.7706 112.897 93.5895 111.108C93.4083 109.32 94.7442 107.286 94.5404 105.525C94.3231 103.655 92.557 102.043 92.3216 100.322C92.0544 98.4019 93.3042 96.3551 93.0099 94.7023C92.6521 92.6736 90.7457 91.2065 90.3654 89.7212C89.6272 86.9363 89.7178 84.2465 88.8484 84.0745C87.911 83.8888 87.7027 86.5197 86.9918 89.4631C86.6386 90.9438 84.7911 92.4427 84.4877 94.4713C84.2431 96.1151 85.5473 98.094 85.3344 100.023C85.1443 101.73 83.4235 103.374 83.256 105.235C83.0975 106.983 84.4967 108.912 84.3563 110.737C84.216 112.562 82.545 114.21 82.4409 116.012C82.3367 117.815 83.7631 119.707 83.668 121.492C83.573 123.276 81.9292 125.042 81.8567 126.799C81.7707 128.655 83.2152 130.53 83.1654 132.233C83.0839 134.143 81.4718 135.896 81.4084 137.562C81.3405 139.591 82.8258 141.461 82.7669 142.996C82.6673 146.347 81.1322 145.654 81.0779 148.349L81.49 148.38Z" fill="#C1CB9C"/>
<path opacity="0.5" d="M81.49 148.38H97.7917C97.4793 146.388 96.1978 146.741 96.0302 143.648C95.9442 142.095 97.3887 140.171 97.2574 138.124C97.1577 136.439 95.4959 134.714 95.3691 132.79C95.2514 131.051 96.6687 129.122 96.5329 127.251C96.4015 125.476 94.7215 123.778 94.5676 121.94C94.4136 120.101 95.8129 118.195 95.6498 116.379C95.4868 114.563 93.7706 112.897 93.5895 111.108C93.4083 109.32 94.7442 107.286 94.5404 105.525C94.3231 103.655 92.557 102.043 92.3216 100.322C92.0544 98.4019 93.3042 96.3551 93.0099 94.7023C92.6521 92.6736 90.7457 91.2065 90.3654 89.7212C89.6272 86.9363 89.7178 84.2465 88.8484 84.0745C87.911 83.8888 87.7027 86.5197 86.9918 89.4631C86.6386 90.9438 84.7911 92.4427 84.4877 94.4713C84.2431 96.1151 85.5473 98.094 85.3344 100.023C85.1443 101.73 83.4235 103.374 83.256 105.235C83.0975 106.983 84.4967 108.912 84.3563 110.737C84.216 112.562 82.545 114.21 82.4409 116.012C82.3367 117.815 83.7631 119.707 83.668 121.492C83.573 123.276 81.9292 125.042 81.8567 126.799C81.7707 128.655 83.2152 130.53 83.1654 132.233C83.0839 134.143 81.4718 135.896 81.4084 137.562C81.3405 139.591 82.8258 141.461 82.7669 142.996C82.6673 146.347 81.1322 145.654 81.0779 148.349L81.49 148.38Z" fill="white"/>
<path d="M88.4861 89.4178V147.629" stroke="#3A4646" stroke-miterlimit="10"/>
<path d="M91.031 95.5219L88.3774 97.8132L86.2039 94.9151" stroke="#3A4646" stroke-miterlimit="10"/>
<path d="M91.031 105.652L88.3774 107.943L86.2039 105.049" stroke="#3A4646" stroke-miterlimit="10"/>
<path d="M91.031 115.184L88.3774 117.475L86.2039 114.577" stroke="#3A4646" stroke-miterlimit="10"/>
<path d="M91.031 126.518L88.3774 128.814L86.2039 125.916" stroke="#3A4646" stroke-miterlimit="10"/>
<path d="M91.031 137.979L88.3774 140.27L86.2039 137.377" stroke="#3A4646" stroke-miterlimit="10"/>
<path d="M41.6548 143.25H55.3392C55.0766 141.574 54.0034 141.891 53.8585 139.274C53.786 137.97 54.9951 136.353 54.8909 134.637C54.8049 133.224 53.4102 131.775 53.3015 130.159C53.2064 128.696 54.3973 127.079 54.2796 125.508C54.1709 124.018 52.7581 122.592 52.6313 121.048C52.5045 119.504 53.6774 117.905 53.537 116.384C53.3966 114.862 51.9657 113.458 51.8117 111.955C51.6578 110.452 52.7808 108.749 52.6087 107.268C52.4276 105.701 50.9468 104.343 50.743 102.898C50.5212 101.291 51.5717 99.5702 51.3227 98.18C51.0238 96.4774 49.4389 95.2457 49.1038 93.9914C48.4834 91.6502 48.5604 89.3952 47.8268 89.2503C47.0933 89.1054 46.8668 91.3016 46.2736 93.7785C45.9748 95.0193 44.4261 96.2781 44.1725 97.9808C43.9642 99.3619 45.0782 101.037 44.8789 102.64C44.7204 104.076 43.2759 105.457 43.1356 107.019C43.0042 108.486 44.1771 110.103 44.0412 111.638C43.9054 113.173 42.5288 114.55 42.4337 116.067C42.3386 117.584 43.5431 119.169 43.4616 120.663C43.3801 122.157 42.0035 123.647 41.931 125.123C41.8586 126.681 43.0903 128.257 43.0269 129.701C42.9635 131.304 41.605 132.776 41.5552 134.18C41.4963 135.878 42.7461 137.449 42.7054 138.744C42.6239 141.561 41.3469 140.977 41.288 143.241L41.6548 143.25Z" fill="#C1CB9C"/>
<path opacity="0.5" d="M41.6548 143.25H55.3392C55.0766 141.574 54.0034 141.891 53.8585 139.274C53.786 137.97 54.9951 136.353 54.8909 134.637C54.8049 133.224 53.4102 131.775 53.3015 130.159C53.2064 128.696 54.3973 127.079 54.2796 125.508C54.1709 124.018 52.7581 122.592 52.6313 121.048C52.5045 119.504 53.6774 117.905 53.537 116.384C53.3966 114.862 51.9657 113.458 51.8117 111.955C51.6578 110.452 52.7808 108.749 52.6087 107.268C52.4276 105.701 50.9468 104.343 50.743 102.898C50.5212 101.291 51.5717 99.5702 51.3227 98.18C51.0238 96.4774 49.4389 95.2457 49.1038 93.9914C48.4834 91.6502 48.5604 89.3952 47.8268 89.2503C47.0933 89.1054 46.8668 91.3016 46.2736 93.7785C45.9748 95.0193 44.4261 96.2781 44.1725 97.9808C43.9642 99.3619 45.0782 101.037 44.8789 102.64C44.7204 104.076 43.2759 105.457 43.1356 107.019C43.0042 108.486 44.1771 110.103 44.0412 111.638C43.9054 113.173 42.5288 114.55 42.4337 116.067C42.3386 117.584 43.5431 119.169 43.4616 120.663C43.3801 122.157 42.0035 123.647 41.931 125.123C41.8586 126.681 43.0903 128.257 43.0269 129.701C42.9635 131.304 41.605 132.776 41.5552 134.18C41.4963 135.878 42.7461 137.449 42.7054 138.744C42.6239 141.561 41.3469 140.977 41.288 143.241L41.6548 143.25Z" fill="white"/>
<path d="M47.528 93.7468V142.616" stroke="#3A4646" stroke-miterlimit="10"/>
<path d="M49.6653 98.8683L47.4374 100.793L45.617 98.3611" stroke="#3A4646" stroke-miterlimit="10"/>
<path d="M49.6653 107.377L47.4374 109.301L45.617 106.87" stroke="#3A4646" stroke-miterlimit="10"/>
<path d="M49.6653 115.374L47.4374 117.298L45.617 114.871" stroke="#3A4646" stroke-miterlimit="10"/>
<path d="M49.6653 124.897L47.4374 126.817L45.617 124.39" stroke="#3A4646" stroke-miterlimit="10"/>
<path d="M49.6653 134.515L47.4374 136.439L45.617 134.008" stroke="#3A4646" stroke-miterlimit="10"/>
<path d="M62.3852 148.38H82.382C81.9971 145.935 80.4258 146.365 80.2175 142.575C80.1134 140.669 81.8794 138.305 81.73 135.783C81.6032 133.713 79.5654 131.599 79.407 129.235C79.2666 127.102 81.0009 124.738 80.8334 122.442C80.6749 120.269 78.61 118.186 78.4288 115.926C78.2477 113.667 79.9503 111.335 79.7511 109.107C79.5519 106.879 77.4507 104.837 77.2243 102.64C76.9979 100.444 78.6462 97.9536 78.3926 95.7936C78.1255 93.4978 75.9609 91.5189 75.6757 89.4088C75.3496 87.0541 76.8847 84.5409 76.5225 82.5122C76.0696 80.0262 73.7693 78.2239 73.2802 76.39C72.3746 72.9712 72.4878 69.6746 71.4146 69.4572C70.2734 69.2308 70.0108 72.4595 69.1504 76.073C68.6976 77.8843 66.4335 79.7228 66.0803 82.2133C65.7769 84.2284 67.3799 86.6827 67.1172 89.0057C66.8818 91.1023 64.7716 93.1174 64.5678 95.3997C64.3731 97.5461 66.0848 99.9279 65.9263 102.151C65.7678 104.375 63.7165 106.412 63.5761 108.622C63.4358 110.832 65.2018 113.15 65.0795 115.342C64.9573 117.534 62.9467 119.698 62.8426 121.854C62.7339 124.118 64.5361 126.436 64.4456 128.551C64.3505 130.892 62.3671 133.043 62.2946 135.09C62.2086 137.576 64.0335 139.872 63.9746 141.765C63.8524 145.876 61.9731 145.025 61.9052 148.331L62.3852 148.38Z" fill="#C1CB9C"/>
<path opacity="0.5" d="M62.3852 148.38H82.382C81.9971 145.935 80.4258 146.365 80.2175 142.575C80.1134 140.669 81.8794 138.305 81.73 135.783C81.6032 133.713 79.5654 131.599 79.407 129.235C79.2666 127.102 81.0009 124.738 80.8334 122.442C80.6749 120.269 78.61 118.186 78.4288 115.926C78.2477 113.667 79.9503 111.335 79.7511 109.107C79.5519 106.879 77.4507 104.837 77.2243 102.64C76.9979 100.444 78.6462 97.9536 78.3926 95.7936C78.1255 93.4978 75.9609 91.5189 75.6757 89.4088C75.3496 87.0541 76.8847 84.5409 76.5225 82.5122C76.0696 80.0262 73.7693 78.2239 73.2802 76.39C72.3746 72.9712 72.4878 69.6746 71.4146 69.4572C70.2734 69.2308 70.0108 72.4595 69.1504 76.073C68.6976 77.8843 66.4335 79.7228 66.0803 82.2133C65.7769 84.2284 67.3799 86.6827 67.1172 89.0057C66.8818 91.1023 64.7716 93.1174 64.5678 95.3997C64.3731 97.5461 66.0848 99.9279 65.9263 102.151C65.7678 104.375 63.7165 106.412 63.5761 108.622C63.4358 110.832 65.2018 113.15 65.0795 115.342C64.9573 117.534 62.9467 119.698 62.8426 121.854C62.7339 124.118 64.5361 126.436 64.4456 128.551C64.3505 130.892 62.3671 133.043 62.2946 135.09C62.2086 137.576 64.0335 139.872 63.9746 141.765C63.8524 145.876 61.9731 145.025 61.9052 148.331L62.3852 148.38Z" fill="white"/>
<path d="M70.9708 76.0458V147.461" stroke="#3A4646" stroke-miterlimit="10"/>
<path d="M74.0907 83.531L70.8349 86.3431L68.1723 82.7929" stroke="#3A4646" stroke-miterlimit="10"/>
<path d="M74.0907 95.9611L70.8349 98.7732L68.1723 95.223" stroke="#3A4646" stroke-miterlimit="10"/>
<path d="M74.0907 107.653L70.8349 110.465L68.1723 106.91" stroke="#3A4646" stroke-miterlimit="10"/>
<path d="M74.0907 121.564L70.8349 124.371L68.1723 120.821" stroke="#3A4646" stroke-miterlimit="10"/>
<path d="M74.0907 135.62L70.8349 138.432L68.1723 134.882" stroke="#3A4646" stroke-miterlimit="10"/>
<path d="M201.417 142.666L198.02 141.285L194.62 142.666L191.223 141.285L187.823 142.666L184.426 141.285L181.03 142.666L177.63 141.285L174.233 142.666L170.833 141.285L167.436 142.666L164.04 141.285L160.64 142.666L157.243 141.285L153.847 142.666L150.446 141.285L147.05 142.666L143.649 141.285L140.253 142.666L136.857 141.285L133.456 142.666L130.06 141.285L126.659 142.666L123.263 141.285L119.867 142.666L116.466 141.285L113.07 142.666L109.674 141.285L106.273 142.666L102.877 141.285L99.4808 142.666L96.08 141.285L92.6838 142.666L89.2876 141.285L85.8914 142.666L82.4907 141.285L79.0945 142.666L75.6983 141.285L72.3021 142.666L68.9059 141.285L65.5052 142.666L62.109 141.285L58.7128 142.666L55.3166 141.285L51.9204 142.666L48.5242 141.285L45.128 142.666L41.7273 141.285L38.3311 142.666L34.9349 141.285L31.5387 142.666L28.1425 141.285L24.7463 142.666L21.3501 141.285L17.9539 142.666L14.5577 141.285L11.1615 142.666L7.76527 141.285L4.91699 142.444V148.385H201.897V142.471L201.417 142.666Z" fill="#C1CB9C"/>
<path d="M136.689 52.1049C134.606 52.1051 132.585 52.8124 130.957 54.1109C130.552 51.6165 129.428 49.2944 127.723 47.4296C126.017 45.5648 123.805 44.2385 121.356 43.6134C118.908 42.9883 116.33 43.0916 113.939 43.9107C111.549 44.7297 109.449 46.2289 107.899 48.2242C106.327 46.1404 104.179 44.5627 101.721 43.6859C99.2627 42.8092 96.6013 42.6718 94.0658 43.2907C91.5302 43.9097 89.2315 45.2579 87.4536 47.1687C85.6758 49.0796 84.4966 51.4694 84.0619 54.043C82.427 53.6414 80.7126 53.7035 79.111 54.2222C77.5094 54.7409 76.0841 55.6958 74.9951 56.9796C73.9061 58.2634 73.1965 59.8253 72.9459 61.4901C72.6953 63.1548 72.9137 64.8564 73.5766 66.4039C74.2394 67.9514 75.3205 69.2835 76.6984 70.2507C78.0763 71.2179 79.6965 71.7819 81.3771 71.8794C83.0578 71.9769 84.7324 71.604 86.2129 70.8026C87.6933 70.0012 88.9212 68.803 89.7585 67.3425C92.6089 69.2633 96.0898 70.0122 99.478 69.4337C102.866 68.8552 105.901 66.9938 107.953 64.2361C109.114 65.7062 110.579 66.9077 112.247 67.758C113.916 68.6083 115.749 69.0874 117.621 69.1623C119.492 69.2371 121.358 68.906 123.089 68.1917C124.82 67.4774 126.377 66.3967 127.651 65.024C128.224 66.9886 129.414 68.7166 131.045 69.9528C132.676 71.189 134.661 71.8678 136.708 71.8889C141.951 71.8889 146.217 67.4648 146.217 62.0037C146.217 56.5426 141.933 52.1049 136.689 52.1049Z" fill="#3A4646" stroke="#3A4646" stroke-linecap="round" stroke-linejoin="round"/>
<path d="M89.7585 68.0082C89.6259 68.0086 89.4962 67.9696 89.3858 67.8963C89.2754 67.8229 89.1892 67.7185 89.1381 67.5961L83.437 54.3011C83.3656 54.1354 83.3629 53.9481 83.4295 53.7804C83.4962 53.6126 83.6268 53.4783 83.7925 53.4068C83.9582 53.3353 84.1456 53.3327 84.3133 53.3993C84.481 53.466 84.6154 53.5965 84.6868 53.7623L90.3834 67.0618C90.4208 67.1443 90.4413 67.2334 90.4437 67.324C90.4462 67.4145 90.4305 67.5046 90.3975 67.589C90.3646 67.6734 90.3152 67.7504 90.2521 67.8153C90.189 67.8803 90.1135 67.932 90.0302 67.9674C89.943 67.9981 89.8508 68.012 89.7585 68.0082Z" fill="white" stroke="#3A4646" stroke-miterlimit="10"/>
<path d="M107.953 65.1282C107.713 65.1282 107.482 65.0328 107.313 64.8629C107.143 64.6931 107.047 64.4627 107.047 64.2225L106.993 48.2061C106.993 47.9659 107.088 47.7355 107.258 47.5657C107.428 47.3958 107.659 47.3004 107.899 47.3004C108.139 47.3004 108.369 47.3958 108.539 47.5657C108.709 47.7355 108.804 47.9659 108.804 48.2061L108.859 64.218C108.859 64.4582 108.763 64.6886 108.593 64.8584C108.424 65.0283 108.193 65.1237 107.953 65.1237V65.1282Z" fill="white" stroke="#3A4646" stroke-miterlimit="10"/>
<path d="M127.633 65.9161C127.543 65.9153 127.453 65.9031 127.366 65.8799C127.252 65.8453 127.146 65.7885 127.054 65.7128C126.962 65.6371 126.886 65.544 126.83 65.4388C126.774 65.3337 126.739 65.2185 126.728 65.0999C126.716 64.9814 126.729 64.8617 126.763 64.7479L130.069 53.8483C130.139 53.6183 130.297 53.4254 130.509 53.3121C130.721 53.1987 130.969 53.1741 131.199 53.2438C131.429 53.3135 131.622 53.4716 131.735 53.6835C131.849 53.8954 131.873 54.1436 131.803 54.3736L128.539 65.2731C128.48 65.4657 128.36 65.6334 128.196 65.7498C128.032 65.8662 127.834 65.9247 127.633 65.9161Z" fill="white" stroke="#3A4646" stroke-miterlimit="10"/>
<path d="M131.817 57.6294C131.817 57.6294 142.49 53.2234 145.275 53.2234C148.06 53.2234 146.439 54.1517 145.275 55.3109C144.111 56.4702 143.536 57.7471 144.116 59.0241L131.817 57.6294Z" fill="#C1CB9C" stroke="#3A4646" stroke-linecap="round" stroke-linejoin="round"/>
<path d="M68.3488 60.9984C68.3488 60.9984 95.6135 54.9622 149.337 60.9984C149.337 60.9984 150.265 60.6497 149.686 60.1833C149.106 59.7169 126.247 55.6551 104.783 55.8905C83.3193 56.126 68.9284 57.9645 68.3488 60.9984Z" fill="#C1CB9C" stroke="#3A4646" stroke-linecap="round" stroke-linejoin="round"/>
<path d="M125.201 47.5359H95.0384C93.948 47.5359 93.0641 48.4198 93.0641 49.5102V57.163C93.0641 58.2534 93.948 59.1373 95.0384 59.1373H125.201C126.292 59.1373 127.176 58.2534 127.176 57.163V49.5102C127.176 48.4198 126.292 47.5359 125.201 47.5359Z" fill="#C1CB9C" stroke="#3A4646" stroke-linecap="round" stroke-linejoin="round"/>
<path d="M125.582 47.5495H94.658C94.2131 47.5718 93.7952 47.7698 93.4963 48.1002C93.1974 48.4305 93.0419 48.866 93.0641 49.311V50.9683H127.18V49.311C127.191 49.0903 127.158 48.8696 127.084 48.6616C127.009 48.4536 126.895 48.2623 126.746 48.0986C126.598 47.935 126.418 47.8023 126.219 47.7081C126.019 47.6138 125.802 47.5599 125.582 47.5495Z" fill="white" stroke="#3A4646" stroke-linecap="round" stroke-linejoin="round"/>
<path d="M129.263 58.6754H90.9766C89.8862 58.6754 89.0023 59.5593 89.0023 60.6497V69.6972C89.0023 70.7876 89.8862 71.6715 90.9766 71.6715H129.263C130.353 71.6715 131.237 70.7876 131.237 69.6972V60.6497C131.237 59.5593 130.353 58.6754 129.263 58.6754Z" fill="#C1CB9C" stroke="#3A4646" stroke-linecap="round" stroke-linejoin="round"/>
<path d="M129.263 58.6754H90.9539C90.4311 58.6766 89.9301 58.8852 89.5608 59.2553C89.1915 59.6254 88.9841 60.1269 88.9841 60.6498V62.4928H131.255V60.6362C131.254 60.3765 131.201 60.1198 131.1 59.8806C130.998 59.6415 130.851 59.4246 130.666 59.2425C130.481 59.0603 130.262 58.9165 130.021 58.8192C129.78 58.7219 129.523 58.673 129.263 58.6754Z" fill="white" stroke="#3A4646" stroke-linecap="round" stroke-linejoin="round"/>
<path d="M104.204 63.7787H105.942V64.4761C105.942 65.2759 106.26 66.043 106.826 66.6086C107.391 67.1742 108.158 67.4919 108.958 67.4919H111.63C112.43 67.4919 113.197 67.1742 113.762 66.6086C114.328 66.043 114.646 65.2759 114.646 64.4761V63.6655H116.267" stroke="#3A4646" stroke-width="3" stroke-linecap="round" stroke-linejoin="round"/>
<path d="M131.708 71.0964H88.0151C86.1141 71.0953 84.2777 71.7857 82.8484 73.0391C81.9248 73.8464 81.2035 74.8592 80.7427 75.996L70.8892 100.308C70.561 101.119 70.0375 101.837 69.3652 102.397C68.693 102.957 67.8927 103.342 67.0356 103.519L55.4976 105.883C53.3065 106.33 51.2521 107.289 49.5022 108.681C46.8373 110.814 45.0317 113.837 44.417 117.194L43.0087 124.892C42.8508 125.763 42.8887 126.657 43.1198 127.511C43.3509 128.365 43.7692 129.156 44.3445 129.828C44.9044 130.481 45.5992 131.004 46.381 131.362C47.1628 131.72 48.0129 131.904 48.8728 131.902H62.1361L72.5511 138.242H123.72L151.95 134.166L158.126 133.713C158.85 133.665 159.549 133.436 160.161 133.047C160.773 132.657 161.277 132.12 161.627 131.485C162.499 129.947 163.008 128.229 163.116 126.464C163.27 122.542 162.211 118.616 160.25 114.844C158.289 111.072 155.418 110.615 151.646 98.0894C147.874 85.5642 146.199 79.8496 142.427 75.6247C138.655 71.3998 131.708 71.0964 131.708 71.0964Z" fill="#C1CB9C" stroke="#3A4646" stroke-linecap="round" stroke-linejoin="round"/>
<path d="M73.1443 107.626V132.984C73.1443 133.865 73.494 134.709 74.1165 135.331C74.7389 135.954 75.5832 136.303 76.4635 136.303H116.312C116.931 136.303 117.543 136.172 118.107 135.919C118.671 135.665 119.175 135.294 119.586 134.832C120.301 134.03 120.696 132.994 120.696 131.92V108.826" stroke="#3A4646" stroke-linecap="round" stroke-linejoin="round"/>
<path d="M56.3127 111.172H151.859" stroke="#3A4646" stroke-linecap="round" stroke-linejoin="round"/>
<path d="M118.726 113.06H113.899C113.658 113.06 113.428 112.964 113.258 112.795C113.088 112.625 112.993 112.394 112.993 112.154C112.993 111.914 113.088 111.684 113.258 111.514C113.428 111.344 113.658 111.249 113.899 111.249H118.726C118.966 111.249 119.196 111.344 119.366 111.514C119.536 111.684 119.631 111.914 119.631 112.154C119.631 112.273 119.608 112.391 119.562 112.501C119.517 112.611 119.45 112.711 119.366 112.795C119.282 112.879 119.182 112.945 119.072 112.991C118.962 113.036 118.845 113.06 118.726 113.06Z" fill="#3A4646" stroke="#3A4646" stroke-linecap="round" stroke-linejoin="round"/>
<path d="M93.6709 73.3606H92.2219C89.8163 73.3615 87.4693 74.103 85.4998 75.4843C83.5303 76.8657 82.0338 78.8198 81.2137 81.0813L72.7367 104.501C72.6467 104.752 72.6181 105.02 72.6534 105.283C72.6887 105.547 72.7869 105.798 72.9396 106.015C73.0924 106.233 73.2952 106.41 73.531 106.533C73.7668 106.656 74.0287 106.72 74.2945 106.72H117.218C117.595 106.72 117.968 106.646 118.316 106.502C118.664 106.357 118.98 106.146 119.246 105.879C119.513 105.613 119.724 105.296 119.867 104.948C120.011 104.599 120.085 104.226 120.084 103.849V77.0602C120.085 76.5746 119.99 76.0936 119.804 75.6448C119.619 75.1959 119.347 74.7881 119.004 74.4445C118.66 74.1009 118.253 73.8283 117.804 73.6423C117.356 73.4563 116.875 73.3606 116.389 73.3606H93.6709Z" fill="#263238"/>
<path d="M115.859 90.9303C115.859 90.9303 120.243 94.4759 121.388 97.0842C122.534 99.6925 124.105 107.096 124.105 107.096H97.5154C97.5154 107.096 104.607 98.9453 107.527 96.3552C110.448 93.765 115.859 90.9303 115.859 90.9303Z" fill="white"/>
<path d="M113.948 98.0487C114.514 97.4826 115.642 97.7091 115.642 99.5158C115.675 99.9904 115.533 100.461 115.241 100.837C114.95 101.213 114.53 101.468 114.062 101.554C114.716 101.565 115.363 101.68 115.982 101.893C116.887 102.233 116.548 104.157 114.623 104.61C112.699 105.063 112.472 102.233 112.472 102.233C112.202 102.622 111.974 103.04 111.793 103.478C111.453 104.271 108.284 104.837 108.51 102.912C108.736 100.988 111.453 101.214 111.001 100.988C110.548 100.761 107.718 98.1619 110.095 97.3649C112.472 96.5679 112.585 100.535 112.585 100.535C112.585 100.535 113.382 98.6147 113.948 98.0487ZM120.623 95.7845C120.623 95.7845 120.51 91.8223 118.133 92.6147C115.755 93.4072 118.585 96.0109 119.038 96.2374C119.491 96.4638 116.774 96.2374 116.548 98.1619C116.321 100.086 119.491 99.5203 119.831 98.7279C120.011 98.2895 120.239 97.872 120.51 97.4826C120.51 97.4826 120.736 100.308 122.661 99.8554C124.585 99.4026 124.925 97.4826 124.019 97.1385C123.401 96.9257 122.753 96.8111 122.099 96.7989C122.567 96.7131 122.987 96.4579 123.279 96.0819C123.57 95.706 123.713 95.2357 123.68 94.7612C123.68 92.9498 122.552 92.7234 121.986 93.2895C121.42 93.8555 120.623 95.7845 120.623 95.7845ZM120.85 105.294C120.85 105.294 120.736 101.332 118.359 102.124C115.982 102.917 118.812 105.52 119.265 105.747C119.717 105.973 117.001 105.747 116.774 107.667C116.548 109.587 119.717 109.025 120.057 108.233C120.237 107.795 120.465 107.379 120.736 106.992C120.736 106.992 120.963 109.818 122.887 109.365C124.812 108.912 125.151 106.992 124.246 106.648C123.627 106.435 122.98 106.32 122.326 106.308C122.794 106.222 123.214 105.967 123.505 105.591C123.797 105.215 123.94 104.745 123.906 104.271C123.906 102.459 122.779 102.233 122.213 102.799C121.647 103.365 120.84 105.289 120.84 105.289L120.85 105.294ZM104.444 105.52C104.444 105.52 104.33 101.558 101.953 102.351C99.5757 103.143 102.406 105.747 102.859 105.973C103.312 106.2 100.595 105.973 100.368 107.893C100.142 109.813 103.312 109.252 103.651 108.459C103.831 108.022 104.059 107.606 104.33 107.218C104.33 107.218 104.557 110.044 106.481 109.591C108.406 109.138 108.745 107.218 107.84 106.874C107.222 106.661 106.574 106.546 105.92 106.535C106.388 106.449 106.808 106.194 107.099 105.818C107.391 105.442 107.534 104.972 107.5 104.497C107.5 102.686 106.373 102.459 105.807 103.025C105.241 103.591 104.444 105.511 104.444 105.511V105.52ZM112.595 92.2797C112.595 92.2797 112.481 88.322 110.104 89.1099C107.727 89.8978 110.557 92.5015 111.01 92.7325C111.462 92.9634 108.745 92.7325 108.519 94.657C108.293 96.5815 111.462 96.0155 111.802 95.223C111.983 94.7846 112.211 94.3671 112.481 93.9778C112.481 93.9778 112.708 96.8079 114.632 96.3551C116.557 95.9023 116.896 93.9778 115.991 93.6381C115.366 93.418 114.71 93.2987 114.048 93.2849C114.515 93.1993 114.935 92.9447 115.226 92.5697C115.517 92.1947 115.661 91.7256 115.628 91.2517C115.628 89.4404 114.501 89.214 113.935 89.7801C113.369 90.3461 112.59 92.2751 112.59 92.2751L112.595 92.2797Z" fill="#C1CB9C"/>
<path d="M115.859 90.9303C115.859 90.9303 120.243 94.4759 121.388 97.0842C122.534 99.6925 124.105 107.096 124.105 107.096H97.5154C97.5154 107.096 104.607 98.9453 107.527 96.3552C110.448 93.765 115.859 90.9303 115.859 90.9303Z" stroke="#3A4646" stroke-linecap="round" stroke-linejoin="round"/>
<path d="M97.5154 107.096H110.507C110.398 104.479 110.027 99.1355 108.777 97.8132C108.062 97.0479 106.839 97.4464 105.68 98.1483C102.352 101.549 97.5154 107.096 97.5154 107.096Z" stroke="#3A4646" stroke-linecap="round" stroke-linejoin="round"/>
<path d="M102.415 77.4768C102.415 77.4768 100.332 79.9809 100.332 80.5017C100.365 81.151 100.14 81.7871 99.7071 82.2722C99.1818 82.7975 97.6196 84.3597 97.6196 85.1929C97.6196 86.0261 99.286 85.8178 99.286 85.8178C99.286 85.8178 97.203 88.5348 97.8279 89.4676C98.4528 90.4004 106.278 97.1883 106.278 97.1883L115.334 89.9929L114.709 88.6344C115.17 87.9403 115.489 87.1614 115.647 86.3431C115.751 85.2971 116.484 81.439 112.93 78.9349C109.375 76.4307 103.982 76.1228 102.415 77.4768Z" fill="white" stroke="#3A4646" stroke-linecap="round" stroke-linejoin="round"/>
<path d="M114.723 88.6344C115.184 87.9403 115.503 87.1614 115.66 86.3431C115.764 85.2971 116.498 81.439 112.943 78.9348C111.208 77.7709 109.222 77.0353 107.147 76.7885C107.926 77.2413 109.411 78.2194 109.502 79.1431C109.606 80.3975 108.252 80.5016 108.252 80.5016C108.252 80.5016 105.748 81.5431 106.06 82.0639C106.373 82.5846 107.731 83.5265 107.731 83.839C107.731 84.1514 106.898 85.4012 107.627 85.6095C108.356 85.8178 108.773 84.0473 109.819 84.251C110.865 84.4548 111.277 84.3552 110.964 86.0216C110.652 87.688 109.714 88.1091 109.714 88.4216C109.714 88.734 112.884 89.3 114.859 88.9287L114.723 88.6344Z" fill="#3A4646" stroke="#3A4646" stroke-linecap="round" stroke-linejoin="round"/>
<path d="M103.044 76.956C103.044 76.956 110.344 70.2814 111.281 70.2814C112.219 70.2814 118.164 73.7229 118.373 75.0768C118.581 76.4308 116.915 85.6095 116.915 85.6095L103.044 76.956Z" fill="white" stroke="#3A4646" stroke-linecap="round" stroke-linejoin="round"/>
<path d="M103.044 76.9561L116.915 85.6096C116.915 85.6096 117.236 83.8436 117.576 81.747L105.376 74.864C104.059 76.0278 103.044 76.9561 103.044 76.9561Z" fill="#3A4646" stroke="#3A4646" stroke-linecap="round" stroke-linejoin="round"/>
<path d="M98.0361 75.3892C98.0361 75.3892 119.102 91.2382 119.414 89.9929C119.727 88.7476 119.206 86.8639 117.748 85.0888C116.29 83.3137 108.238 78.2058 104.502 76.5394C100.767 74.873 98.2444 74.1394 98.0361 75.3892Z" fill="white" stroke="#3A4646" stroke-linecap="round" stroke-linejoin="round"/>
<path d="M102.275 82.005C102.017 82.9786 101.464 83.6805 101.047 83.5673C100.631 83.4541 100.504 82.5756 100.767 81.602C101.029 80.6285 101.577 79.9311 101.994 80.0398C102.41 80.1485 102.546 81.0586 102.275 82.005Z" stroke="#3A4646" stroke-linecap="round" stroke-linejoin="round"/>
<path d="M102.284 82.0051L108.777 84.5681" stroke="#3A4646" stroke-linecap="round" stroke-linejoin="round"/>
<path d="M99.0776 86.4473C99.6667 86.6132 100.29 86.6131 100.879 86.4468C101.468 86.2806 102 85.9548 102.415 85.5054" stroke="#3A4646" stroke-linecap="round" stroke-linejoin="round"/>
<path d="M102.103 84.8805L103.044 86.1303" stroke="#3A4646" stroke-linecap="round" stroke-linejoin="round"/>
<path d="M103.859 95.5491L104.149 99.9279L116.249 90.962L115.244 88.9469L103.859 95.5491Z" fill="white" stroke="#3A4646" stroke-linecap="round" stroke-linejoin="round"/>
<path d="M87.4853 107.4L85.3796 107.993L82.2868 96.9982C82.2469 96.859 82.2349 96.7133 82.2516 96.5695C82.2682 96.4257 82.3132 96.2866 82.384 96.1603C82.4547 96.034 82.5498 95.923 82.6637 95.8336C82.7776 95.7442 82.908 95.6783 83.0476 95.6397C83.1864 95.5997 83.3318 95.5875 83.4754 95.6039C83.619 95.6203 83.7579 95.6649 83.8841 95.7352C84.0104 95.8054 84.1215 95.9 84.2111 96.0134C84.3007 96.1268 84.3669 96.2568 84.406 96.3959L87.4853 107.4Z" fill="#3A4646" stroke="#3A4646" stroke-linecap="round" stroke-linejoin="round"/>
<path d="M90.1253 101.689C90.1253 101.689 87.1502 97.6819 86.2898 96.4819C85.4295 95.2819 84.5691 95.3363 83.9985 95.6804C83.428 96.0246 80.7336 98.1393 80.9057 98.8276C81.0778 99.5159 82.5676 102.903 82.794 103.356C82.9052 103.602 83.0819 103.812 83.3048 103.964C83.5277 104.115 83.7881 104.203 84.0574 104.216C84.628 104.216 85.1442 103.012 85.1442 103.012H86.0498C86.0498 103.012 87.1411 105.362 88.3411 105.878C89.1621 106.189 90.0441 106.306 90.9177 106.218L92.0045 107.708H96.7592L90.1253 101.689Z" fill="white" stroke="#3A4646" stroke-linecap="round" stroke-linejoin="round"/>
<path d="M83.1382 103.754C83.0151 103.603 82.9388 103.419 82.9187 103.226C82.8986 103.032 82.9355 102.836 83.025 102.663C83.3102 101.979 84.2295 100.603 84.4559 100.603C84.6823 100.603 86.6883 100.489 86.6883 100.489" stroke="#3A4646" stroke-linecap="round" stroke-linejoin="round"/>
<path d="M82.2823 101.689C82.2823 101.689 83.3102 99.457 83.8264 99.2306C84.3426 99.0042 86.4619 98.9996 86.4619 98.9996" stroke="#3A4646" stroke-linecap="round" stroke-linejoin="round"/>
<path d="M81.5352 100.145C81.5352 100.145 82.794 97.7408 83.5412 97.6276C84.2447 97.5474 84.9523 97.5081 85.6604 97.5098" stroke="#3A4646" stroke-linecap="round" stroke-linejoin="round"/>
<path d="M93.6709 73.3606H92.2219C89.8163 73.3615 87.4693 74.103 85.4998 75.4843C83.5303 76.8657 82.0338 78.8198 81.2137 81.0813L72.7367 104.501C72.6467 104.752 72.6181 105.02 72.6534 105.283C72.6887 105.547 72.7869 105.798 72.9396 106.015C73.0924 106.233 73.2952 106.41 73.531 106.533C73.7668 106.656 74.0287 106.72 74.2945 106.72H117.218C117.595 106.72 117.968 106.646 118.316 106.502C118.664 106.357 118.98 106.146 119.246 105.879C119.513 105.613 119.724 105.296 119.867 104.948C120.011 104.599 120.085 104.226 120.084 103.849V77.0602C120.085 76.5746 119.99 76.0936 119.804 75.6448C119.619 75.1959 119.347 74.7881 119.004 74.4445C118.66 74.1009 118.253 73.8283 117.804 73.6423C117.356 73.4563 116.875 73.3606 116.389 73.3606H93.6709Z" stroke="#3A4646" stroke-linecap="round" stroke-linejoin="round"/>
<path d="M124.314 76.2587V104.456C124.314 105.096 124.568 105.71 125.021 106.163C125.473 106.615 126.087 106.87 126.727 106.87H149.821L143.029 83.7756C142.332 81.4029 140.994 79.2686 139.162 77.6081C136.782 75.4485 133.707 74.2131 130.495 74.1259L126.6 74.0217C126.303 74.0151 126.006 74.0681 125.729 74.1775C125.452 74.2869 125.199 74.4507 124.986 74.659C124.773 74.8674 124.604 75.1163 124.489 75.391C124.373 75.6657 124.314 75.9607 124.314 76.2587Z" fill="#263238"/>
<path d="M143.251 84.5092L125.237 106.344C125.661 106.682 126.186 106.867 126.727 106.87H135.15L146.077 94.1227L143.251 84.5092Z" fill="white"/>
<path d="M148.748 103.215L147.313 98.3294L140.461 106.87H145.52L148.748 103.215Z" fill="white"/>
<path d="M124.314 76.2587V104.456C124.314 105.096 124.568 105.71 125.021 106.163C125.473 106.615 126.087 106.87 126.727 106.87H149.821L143.029 83.7756C142.332 81.4029 140.994 79.2686 139.162 77.6081V77.6081C136.782 75.4485 133.707 74.2131 130.495 74.1259L126.6 74.0217C126.303 74.0151 126.006 74.0681 125.729 74.1775C125.452 74.2869 125.199 74.4507 124.986 74.659C124.773 74.8674 124.604 75.1163 124.489 75.391C124.373 75.6657 124.314 75.9607 124.314 76.2587V76.2587Z" stroke="#3A4646" stroke-linecap="round" stroke-linejoin="round"/>
<path d="M88.6898 73.9085C86.9766 74.4499 85.4111 75.3785 84.1146 76.6223C82.8181 77.8662 81.8255 79.392 81.2137 81.0813L72.7367 104.501C72.6467 104.752 72.6181 105.02 72.6534 105.283C72.6887 105.547 72.7869 105.798 72.9396 106.015C73.0924 106.233 73.2952 106.41 73.531 106.533C73.7668 106.656 74.0287 106.72 74.2945 106.72H88.6898V73.9085Z" stroke="#3A4646" stroke-linecap="round" stroke-linejoin="round"/>
<path d="M43.0087 124.915C43.0087 124.915 41.4464 126.038 41.4464 127.396C41.4464 128.755 42.3521 130.566 43.2577 130.87C44.1634 131.173 44.3445 129.851 44.3445 129.851C44.3445 129.851 43.0675 126.654 43.0087 124.915Z" fill="#3A4646" stroke="#3A4646" stroke-linecap="round" stroke-linejoin="round"/>
<path d="M46.2502 111.501L44.9109 111.247C44.2155 111.116 43.5451 111.573 43.4136 112.268L41.8138 120.727C41.6823 121.422 42.1394 122.092 42.8349 122.224L44.1741 122.477C44.8696 122.609 45.5399 122.152 45.6715 121.456L47.2712 112.998C47.4027 112.303 46.9456 111.632 46.2502 111.501Z" fill="white" stroke="#3A4646" stroke-linecap="round" stroke-linejoin="round"/>
<path d="M163.103 117.738H162.048C160.88 117.738 159.933 118.684 159.933 119.852V125.888C159.933 127.056 160.88 128.003 162.048 128.003H163.103C164.271 128.003 165.217 127.056 165.217 125.888V119.852C165.217 118.684 164.271 117.738 163.103 117.738Z" fill="white" stroke="#3A4646" stroke-linecap="round" stroke-linejoin="round"/>
<path d="M58.7263 148.38C66.5216 148.38 72.8409 142.061 72.8409 134.266C72.8409 126.47 66.5216 120.151 58.7263 120.151C50.931 120.151 44.6117 126.47 44.6117 134.266C44.6117 142.061 50.931 148.38 58.7263 148.38Z" fill="#3A4646"/>
<path d="M58.124 116.379L58.7263 134.266L49.7467 119.549L58.124 116.379ZM68.7654 148.285L58.7308 134.248L60.6462 152.044L68.7654 148.285Z" fill="white"/>
<path d="M58.7263 148.38C66.5216 148.38 72.8409 142.061 72.8409 134.266C72.8409 126.47 66.5216 120.151 58.7263 120.151C50.931 120.151 44.6117 126.47 44.6117 134.266C44.6117 142.061 50.931 148.38 58.7263 148.38Z" stroke="#3A4646" stroke-linecap="round" stroke-linejoin="round"/>
<path d="M58.7262 143.549C63.8531 143.549 68.0092 139.393 68.0092 134.266C68.0092 129.139 63.8531 124.983 58.7262 124.983C53.5994 124.983 49.4433 129.139 49.4433 134.266C49.4433 139.393 53.5994 143.549 58.7262 143.549Z" fill="white" stroke="#3A4646" stroke-linecap="round" stroke-linejoin="round"/>
<path d="M58.7263 140.981C62.4351 140.981 65.4417 137.975 65.4417 134.266C65.4417 130.557 62.4351 127.55 58.7263 127.55C55.0175 127.55 52.0109 130.557 52.0109 134.266C52.0109 137.975 55.0175 140.981 58.7263 140.981Z" fill="white" stroke="#3A4646" stroke-linecap="round" stroke-linejoin="round"/>
<path d="M150.836 141.013C154.552 134.161 152.009 125.593 145.156 121.877C138.304 118.161 129.736 120.704 126.02 127.556C122.304 134.409 124.847 142.976 131.7 146.692C138.552 150.408 147.12 147.866 150.836 141.013Z" fill="#3A4646"/>
<path d="M155.287 128.266L138.424 134.266L149.744 121.242L155.287 128.266ZM128.117 148.081L138.433 134.266L122.059 141.484L128.117 148.081Z" fill="white"/>
<path d="M150.836 141.013C154.552 134.161 152.009 125.593 145.156 121.877C138.304 118.161 129.736 120.704 126.02 127.556C122.304 134.409 124.847 142.976 131.7 146.692C138.552 150.408 147.12 147.866 150.836 141.013Z" stroke="#3A4646" stroke-linecap="round" stroke-linejoin="round"/>
<path d="M146.842 138.174C149.002 133.525 146.984 128.004 142.334 125.844C137.685 123.684 132.164 125.702 130.004 130.351C127.844 135.001 129.862 140.521 134.512 142.682C139.161 144.842 144.681 142.824 146.842 138.174Z" fill="white" stroke="#3A4646" stroke-linecap="round" stroke-linejoin="round"/>
<path d="M140.287 140.707C143.852 139.682 145.91 135.961 144.884 132.397C143.859 128.832 140.138 126.774 136.574 127.8C133.01 128.825 130.952 132.546 131.977 136.11C133.002 139.674 136.723 141.732 140.287 140.707Z" fill="white" stroke="#3A4646" stroke-linecap="round" stroke-linejoin="round"/>
<path d="M74.865 103.89C75.9563 106.304 76.2235 108.55 75.4174 108.907C74.6114 109.265 73.1035 107.594 72.0122 105.181C70.9209 102.767 70.6537 100.517 71.4597 100.159C72.2658 99.8012 73.7692 101.472 74.865 103.89Z" fill="#3A4646" stroke="#3A4646" stroke-linecap="round" stroke-linejoin="round"/>
<path d="M1 148.38H204.654" stroke="#3A4646" stroke-linecap="round" stroke-linejoin="round"/>
</svg>
