<svg width="320" height="228" viewBox="0 0 320 228" fill="none" xmlns="http://www.w3.org/2000/svg">
<path d="M320 198.456H0V198.616H320V198.456Z" fill="#C1CB9C"/>
<path d="M287.936 208.753H266.739V208.913H287.936V208.753Z" fill="#C1CB9C"/>
<path d="M211.981 210.494H206.419V210.654H211.981V210.494Z" fill="#C1CB9C"/>
<path d="M266.099 202.814H253.818V202.974H266.099V202.814Z" fill="#C1CB9C"/>
<path d="M61.216 203.889H33.5744V204.049H61.216V203.889Z" fill="#C1CB9C"/>
<path d="M70.9696 203.889H66.9184V204.049H70.9696V203.889Z" fill="#C1CB9C"/>
<path d="M144.096 206.59H84.1408V206.75H144.096V206.59Z" fill="#C1CB9C"/>
<path d="M214.656 75.2173C229.342 75.2173 241.248 63.3116 241.248 48.6253C241.248 33.9389 229.342 22.0333 214.656 22.0333C199.97 22.0333 188.064 33.9389 188.064 48.6253C188.064 63.3116 199.97 75.2173 214.656 75.2173Z" fill="#E5E6E1"/>
<path d="M262.112 43.3837C262.112 42.2345 261.656 41.1325 260.843 40.3199C260.03 39.5073 258.928 39.0509 257.779 39.0509C257.358 39.0496 256.94 39.1121 256.538 39.2365C256.599 38.7953 256.631 38.3506 256.634 37.9053C256.636 36.5553 256.34 35.2215 255.767 33.9994C255.193 32.7772 254.357 31.6969 253.317 30.8359C252.277 29.9748 251.06 29.3542 249.753 29.0185C248.445 28.6828 247.079 28.6403 245.754 28.8941C244.849 27.4089 243.486 26.258 241.871 25.6149C240.255 24.9717 238.474 24.8711 236.796 25.3283C235.119 25.7855 233.635 26.7756 232.569 28.1495C231.503 29.5234 230.912 31.2065 230.886 32.9453H230.752C228.83 33.0018 227.006 33.8051 225.666 35.1846C224.327 36.5641 223.577 38.4112 223.577 40.3341C223.577 42.2569 224.327 44.104 225.666 45.4835C227.006 46.863 228.83 47.6663 230.752 47.7229H257.92C259.046 47.6863 260.113 47.2128 260.895 46.4028C261.678 45.5928 262.114 44.5099 262.112 43.3837Z" fill="#C1CB9C"/>
<path d="M193.67 67.2173C193.67 66.0693 193.215 64.9682 192.404 64.1558C191.592 63.3434 190.492 62.8862 189.344 62.8845C188.91 62.8805 188.479 62.9431 188.064 63.0701C188.261 61.7662 188.173 60.4352 187.807 59.1684C187.44 57.9016 186.804 56.7291 185.942 55.7314C185.08 54.7336 184.012 53.9343 182.812 53.3882C181.612 52.8421 180.307 52.5622 178.989 52.5677C178.422 52.569 177.856 52.6225 177.299 52.7277C176.391 51.257 175.032 50.1193 173.424 49.4845C171.817 48.8496 170.047 48.7517 168.379 49.2052C166.711 49.6587 165.234 50.6393 164.17 52.0008C163.105 53.3623 162.509 55.0317 162.47 56.7597H162.336C160.414 56.8163 158.59 57.6195 157.25 58.999C155.911 60.3785 155.161 62.2257 155.161 64.1485C155.161 66.0713 155.911 67.9185 157.25 69.298C158.59 70.6775 160.414 71.4807 162.336 71.5373H189.44C190.57 71.5122 191.645 71.0462 192.435 70.239C193.226 69.4317 193.669 68.3472 193.67 67.2173Z" fill="#C1CB9C"/>
<path d="M74.24 75.4156C74.24 74.2676 73.7844 73.1665 72.9732 72.3542C72.162 71.5418 71.0616 71.0845 69.9136 71.0828C69.4805 71.0804 69.0494 71.1408 68.6336 71.262C68.7002 70.8236 68.7345 70.3808 68.736 69.9372C68.7325 68.5889 68.4326 67.2578 67.8575 66.0383C67.2824 64.8188 66.4461 63.7407 65.408 62.8802C64.3699 62.0198 63.1553 61.3982 61.8502 61.0594C60.5452 60.7206 59.1816 60.6729 57.856 60.9196C56.9528 59.4325 55.59 58.2797 53.9737 57.6356C52.3574 56.9915 50.5753 56.8909 48.8968 57.3492C47.2183 57.8075 45.7346 58.7998 44.6699 60.1759C43.6051 61.5521 43.0173 63.2374 42.9952 64.9772H42.8608C40.9388 65.0338 39.1145 65.8371 37.775 67.2166C36.4355 68.5961 35.6863 70.4432 35.6863 72.366C35.6863 74.2889 36.4355 76.136 37.775 77.5155C39.1145 78.895 40.9388 79.6983 42.8608 79.7548H69.9904C71.1272 79.7363 72.2109 79.2704 73.0064 78.4581C73.802 77.6458 74.2452 76.5526 74.24 75.4156Z" fill="#C1CB9C"/>
<path d="M259.61 96.0813C259.61 95.3871 259.334 94.7213 258.843 94.2304C258.352 93.7395 257.686 93.4637 256.992 93.4637C256.736 93.4635 256.482 93.5002 256.237 93.5725C256.352 92.785 256.296 91.9821 256.073 91.2182C255.85 90.4543 255.465 89.7472 254.945 89.145C254.425 88.5428 253.781 88.0596 253.058 87.7281C252.334 87.3966 251.548 87.2246 250.752 87.2237C250.411 87.223 250.07 87.2551 249.734 87.3197C249.184 86.4323 248.361 85.7467 247.389 85.365C246.417 84.9834 245.347 84.926 244.34 85.2016C243.332 85.4772 242.441 86.071 241.798 86.8944C241.156 87.7178 240.797 88.7267 240.774 89.7709H240.64C239.452 89.7709 238.312 90.2429 237.472 91.0831C236.632 91.9232 236.16 93.0627 236.16 94.2509C236.16 95.4391 236.632 96.5786 237.472 97.4187C238.312 98.2589 239.452 98.7309 240.64 98.7309H257.037C257.38 98.7259 257.718 98.6534 258.033 98.5175C258.348 98.3816 258.633 98.1851 258.872 97.939C259.111 97.693 259.299 97.4023 259.426 97.0835C259.552 96.7648 259.615 96.4242 259.61 96.0813Z" fill="#C1CB9C"/>
<path d="M101.395 11.9021C101.398 11.4935 101.305 11.0898 101.123 10.724C100.941 10.3582 100.675 10.0404 100.347 9.79664C100.019 9.55284 99.6382 9.38983 99.2354 9.32086C98.8326 9.2519 98.4192 9.27891 98.0288 9.39971C98.1435 8.61224 98.0875 7.80931 97.8646 7.04538C97.6417 6.28146 97.2571 5.57442 96.7369 4.97224C96.2166 4.37006 95.573 3.88682 94.8495 3.55531C94.1261 3.2238 93.3398 3.05178 92.544 3.05091C92.2004 3.05023 91.8575 3.08238 91.52 3.14691C90.9692 2.25955 90.1464 1.57394 89.1743 1.19225C88.2021 0.810563 87.1326 0.753241 86.1253 1.02883C85.1179 1.30442 84.2265 1.89817 83.5841 2.72157C82.9416 3.54498 82.5824 4.55395 82.56 5.59811H82.4832C81.295 5.59811 80.1555 6.07011 79.3154 6.91027C78.4752 7.75044 78.0032 8.88994 78.0032 10.0781C78.0032 11.2663 78.4752 12.4058 79.3154 13.246C80.1555 14.0861 81.295 14.5581 82.4832 14.5581H98.88C99.563 14.5315 100.209 14.2387 100.679 13.7424C101.149 13.246 101.406 12.5856 101.395 11.9021Z" fill="#C1CB9C"/>
<path d="M57.5104 109.662L74.8416 188.389L77.9904 186.91L59.7888 109.221L57.5104 109.662Z" fill="#C1CB9C"/>
<path d="M256.499 188.011C256.499 188.011 245.76 114.04 269.901 37.5597L266.118 34.6413C266.118 34.6413 237.856 92.4973 241.971 190.11L256.499 188.011Z" fill="#C1CB9C"/>
<path d="M276.48 17.4508C285.325 11.6524 298.413 20.8748 300.211 35.2876C298.911 34.538 297.552 33.8959 296.147 33.3676C295.462 29.7388 294.803 26.5324 294.803 26.5324L295.277 33.0412C294.496 32.7596 293.645 32.4844 292.717 32.2348L292.077 28.734L291.789 32.0044C290.536 31.7119 289.267 31.4981 287.987 31.3644L286.336 21.1244L285.504 31.1596C284.194 31.1232 282.883 31.181 281.581 31.3324L280.57 24.382V31.4732C279.449 31.6543 278.342 31.9087 277.254 32.2348L276.045 21.8668C276.045 21.8668 276.077 27.6972 276.013 32.6444C272.883 33.7786 269.989 35.4795 267.475 37.662L267.379 36.382C267.379 36.382 268.397 22.7372 276.48 17.4508Z" fill="#96A561"/>
<path d="M264.25 12.8173C257.21 4.91328 242.182 10.3917 236.685 23.8317C238.134 23.4426 239.613 23.175 241.107 23.0317C242.714 19.7101 244.192 16.7853 244.192 16.7853L242.035 22.9421C242.861 22.8781 243.75 22.8397 244.704 22.8397L246.208 19.6397L245.632 22.8717C246.918 22.9067 248.2 23.0221 249.472 23.2173L253.741 13.7837L251.936 23.7037C253.212 24.0068 254.463 24.4047 255.68 24.8941L258.477 18.4493L256.64 25.2717C257.677 25.7353 258.68 26.2721 259.642 26.8781L263.526 17.1821C263.526 17.1821 261.965 22.8013 260.736 27.5885C263.46 29.5046 265.807 31.9063 267.661 34.6733L268.09 33.4637C268.09 33.4637 270.656 20.0365 264.25 12.8173Z" fill="#96A561"/>
<path d="M257.485 31.5629C264.525 24.6957 269.811 30.6733 269.811 30.6733C267.168 31.3581 264.806 33.0541 262.771 35.2109L261.818 33.9693L261.971 36.0877C261.485 36.6509 261.011 37.2397 260.557 37.8477L258.944 34.1805L259.635 39.1469C258.995 40.0941 258.355 41.0669 257.824 42.0397L257.114 38.4045L257.171 43.2237C256.582 44.3117 256.058 45.3805 255.59 46.3853L254.822 39.7101L254.72 48.3437C253.594 51.0061 253.005 52.8749 253.005 52.8749C253.005 52.8749 250.445 38.4365 257.485 31.5629Z" fill="#96A561"/>
<path d="M276.48 47.7997L275.027 48.6381C274.816 47.5181 274.566 46.3469 274.291 45.1565L275.277 43.3453L274.035 44.1133C273.939 43.7165 273.83 43.3261 273.728 42.9293L275.008 39.3837L273.088 40.7981C272.064 37.5981 270.758 34.7885 269.126 33.4445C269.126 33.4445 285.267 38.6029 276.166 56.0045C276.166 56.0045 275.872 53.2525 275.226 49.6365L276.48 47.7997Z" fill="#96A561"/>
<path d="M260.608 33.5596L258.048 28.6956L259.11 33.7644C258.854 33.8028 258.592 33.854 258.33 33.9052L254.982 29.7388L255.808 34.5324C254.664 34.8787 253.542 35.2934 252.448 35.774C251.255 36.3086 250.091 36.9046 248.96 37.5596L247.328 33.3036L248.09 38.0652C246.982 38.7052 245.901 39.4284 244.89 40.158L244.083 36.4076L244.16 40.6764C242.88 41.598 241.69 42.5324 240.589 43.4476L240.691 36.6508L239.699 44.1964C238.573 45.1564 237.555 46.078 236.691 46.8972L236.57 42.1804L235.373 48.1708C234.131 49.406 233.421 50.1932 233.421 50.1932C234.061 33.6876 240.461 27.1532 251.046 25.3612C261.632 23.5692 269.261 34.5836 269.261 34.5836C269.261 34.5836 265.971 33.022 260.608 33.5596Z" fill="#96A561"/>
<path d="M291.482 53.7325L290.515 58.6797C290.048 57.4573 289.414 55.8893 288.595 54.1421L289.466 46.9421L287.878 52.6189C286.638 50.0374 285.2 47.5554 283.578 45.1948L285.088 40.2029L282.643 43.9085C282.15 43.2685 281.645 42.6285 281.12 42.0397L281.978 38.8973L280.653 41.5276C280.294 41.1308 279.923 40.7533 279.546 40.3885L280.589 36.1964L278.931 39.8252C277.9 38.8818 276.764 38.0594 275.546 37.3741L277.229 32.2541L274.592 36.9005C272.934 36.1228 271.117 35.7436 269.286 35.7933C269.286 35.7933 272.486 30.6733 278.368 28.9133C284.25 27.1533 296.928 37.8029 291.424 61.2972C291.424 61.2972 291.258 60.7661 290.925 59.8509L291.482 53.7325Z" fill="#96A561"/>
<path d="M281.779 8.08129L282.784 11.0637C282.413 11.0847 282.045 11.1382 281.683 11.2237L280.474 7.33889L281.28 11.3197C280.513 11.549 279.78 11.8828 279.104 12.3117L277.44 7.07009L278.4 12.7853C278.131 12.9837 277.862 13.2013 277.587 13.4253L275.706 8.50369L277.12 13.8797C275.729 15.2718 274.542 16.8533 273.594 18.5773L273.101 11.3197L272.269 21.1693C270.889 24.2493 269.776 27.4417 268.941 30.7117C268.941 30.7117 267.917 4.47169 274.234 1.52769C280.55 -1.41631 284.307 11.1853 284.307 11.1853C284.026 11.1025 283.736 11.0552 283.443 11.0445L281.779 8.08129Z" fill="#96A561"/>
<path d="M272.755 37.2717L272.192 42.2445L270.272 37.4509L267.712 41.2013L266.701 37.7069L263.744 40.1901C263.744 40.1901 264.109 33.8477 265.997 30.9485C267.885 28.0493 273.555 30.0845 272.755 37.2717Z" fill="#96A561"/>
<path d="M193.92 117.233V82.5581C193.92 82.5581 186.88 90.0397 182.227 89.0157C177.574 87.9917 171.52 91.5309 171.52 91.5309C171.52 91.5309 177.619 90.6413 179.885 93.1181C182.15 95.5949 192.262 95.8573 192.262 95.8573V118.501L193.92 117.233Z" fill="#C1CB9C"/>
<path d="M224.96 106.603H223.36V108.785H218.086V106.603H212.902V108.785H207.629V106.603H202.451V108.785H197.171V106.603H191.994V108.785H186.72V106.603H181.536V108.785H176.262V106.603H171.078V108.785H165.805V106.603H164.032L158.893 147.691L230.272 147.397L224.96 106.603Z" fill="#96A561"/>
<path d="M236.314 136.427H234.118V139.422H226.874V136.427H219.757V139.422H212.506V136.427H205.389V139.422H198.144V136.427H191.027V139.422H183.776V136.427H176.659V139.422H169.408V136.427H162.291V139.422H155.046V136.427H152.608L145.542 192.881L243.622 192.472L236.314 136.427Z" fill="#C1CB9C"/>
<path d="M272.544 186.232C271.027 184.523 269.6 182.776 268.013 181.112C267.931 181.029 267.856 180.939 267.789 180.843C267.266 180.505 266.721 180.203 266.157 179.94C266.054 179.908 265.722 179.774 265.382 179.646C264.742 179.416 264.102 179.166 263.462 178.91C259.488 177.31 255.917 175.454 252.915 172.299C251.27 170.571 249.958 168.555 248.256 166.878C248.211 166.936 247.878 166.756 247.718 166.628L246.438 166.462C245.754 166.462 245.062 166.462 244.378 166.507C243.398 166.552 242.419 166.628 241.44 166.718C237.6 172.299 232.8 179.921 230.675 180.926C227.379 182.488 197.005 190.526 194.765 190.033C192.525 189.54 180.8 190.507 177.856 190.398C174.912 190.289 169.581 188.984 161.856 185.432C154.131 181.88 149.92 181.86 140.621 178.897C131.322 175.934 125.088 174.808 119.648 179.364C114.208 183.921 99.264 174.302 94.6048 172.932C89.9456 171.563 81.0368 163.672 74.9568 167.352C68.8768 171.032 63.8208 172.785 56.224 179.364C48.6272 185.944 33.5552 198.66 33.5552 198.66H290.195L287.245 193.508C284.433 193.337 281.684 192.605 279.159 191.356C276.634 190.106 274.385 188.364 272.544 186.232Z" fill="#E5E6E1"/>
<path d="M27.6352 123.32C27.6352 123.32 35.104 109.88 55.3408 98.2828C55.3408 98.2828 71.8144 96.8812 90.4128 104.99C90.4128 104.99 94.1824 111.249 89.8944 113.72C85.6064 116.19 82.0544 111.224 82.0544 111.224C82.0544 111.224 81.2608 118.788 75.6544 119.006C70.048 119.224 68.4224 113.72 68.4224 113.72C68.4224 113.72 67.872 120.664 61.1968 122.417C55.424 123.96 51.84 119.006 51.84 119.006C51.84 119.006 50.688 124.715 45.4976 126.36C41.3248 127.678 38.4576 124.088 38.4576 124.088C38.4576 124.088 37.2608 130.283 32.832 130.283C29.024 130.283 27.6352 123.32 27.6352 123.32Z" fill="#96A561"/>
<path d="M160 227.358C228.533 227.358 284.09 224.114 284.09 220.113C284.09 216.112 228.533 212.868 160 212.868C91.4672 212.868 35.9104 216.112 35.9104 220.113C35.9104 224.114 91.4672 227.358 160 227.358Z" fill="#E5E6E1"/>
<path d="M245.76 188.542C245.76 188.542 248.544 184.465 251.078 183.326C253.613 182.187 254.022 177.854 255.398 177.617C256.774 177.38 258.291 181.374 260.698 182.539C263.104 183.704 266.746 188.516 266.746 188.516L245.76 188.542Z" fill="#C1CB9C"/>
<path opacity="0.8" d="M245.76 188.542C245.76 188.542 248.544 184.465 251.078 183.326C253.613 182.187 254.022 177.854 255.398 177.617C256.774 177.38 258.291 181.374 260.698 182.539C263.104 183.704 266.746 188.516 266.746 188.516L245.76 188.542Z" fill="white"/>
<path d="M265.997 217.892H245.747L243.187 188.516H268.557L265.997 217.892Z" fill="#C1CB9C"/>
<path d="M269.779 186.993H241.958V190.084H269.779V186.993Z" fill="#C1CB9C"/>
<path opacity="0.2" d="M269.779 186.993H241.958V190.084H269.779V186.993Z" fill="white"/>
<path d="M254.675 189.169C256.518 192.062 264.41 203.998 269.299 204.868L269.901 203.422C269.901 203.422 265.523 203.947 255.821 188.44C255.729 188.289 255.583 188.179 255.413 188.133C255.243 188.087 255.061 188.107 254.906 188.19C254.823 188.237 254.752 188.3 254.695 188.375C254.638 188.451 254.598 188.537 254.576 188.629C254.555 188.721 254.552 188.817 254.569 188.91C254.586 189.003 254.622 189.091 254.675 189.169Z" fill="#263238"/>
<path d="M225.862 179.902C226.07 179.836 226.289 179.813 226.506 179.833C226.724 179.854 226.934 179.917 227.127 180.021C227.319 180.124 227.488 180.264 227.625 180.434C227.762 180.604 227.863 180.8 227.923 181.009L231.379 193.099L235.859 191.3C235.859 191.3 238.566 201.38 233.453 202.974C228.48 204.529 224.64 195.224 224.64 195.224L229.21 193.944L224.845 182.001C224.771 181.797 224.739 181.58 224.751 181.363C224.763 181.146 224.817 180.933 224.912 180.738C225.007 180.542 225.14 180.367 225.303 180.224C225.466 180.08 225.656 179.971 225.862 179.902Z" fill="#C1CB9C"/>
<path opacity="0.4" d="M233.472 202.974C228.48 204.529 224.64 195.224 224.64 195.224L229.21 193.944C229.21 193.944 229.997 195.288 230.88 194.955C231.763 194.622 231.405 193.08 231.405 193.08L235.885 191.281C235.885 191.281 238.586 201.4 233.472 202.974Z" fill="white"/>
<path d="M271.789 220.376C269.274 219.128 266.701 217.95 265.875 217.892C264.109 217.777 263.091 216.99 261.83 215.486C260.57 213.982 260.058 212.241 257.779 209.822C255.501 207.403 258.029 206.43 253.216 205.809C248.403 205.188 250.266 205.579 247.309 203.448C244.352 201.316 244.954 201.323 241.491 199.8C238.029 198.276 240.051 197.7 236 197.361C233.203 197.124 228.781 198.596 226.483 200.235C225.466 200.958 224.947 202.155 223.923 202.795C222.79 203.518 221.03 202.155 221.216 204.593C221.339 205.215 221.367 205.851 221.299 206.481C220.973 207.851 215.334 207.844 213.901 208.273C213.559 208.334 213.253 208.522 213.043 208.798C212.717 209.38 213.21 210.411 212.576 210.622C212.378 210.692 212.154 210.622 211.936 210.654C211.174 210.801 211.373 212.171 210.656 212.484C209.939 212.798 209.114 212.158 208.32 212.484C207.712 212.715 207.507 213.534 206.976 213.86C206.048 214.424 205.088 214.84 204.173 215.441C202.586 216.478 201.21 217.752 199.507 218.641L194.95 219.883L193.587 220.363L271.789 220.376Z" fill="#C1CB9C"/>
<path opacity="0.8" d="M271.789 220.376C269.274 219.128 266.701 217.95 265.875 217.892C264.109 217.777 263.091 216.99 261.83 215.486C260.57 213.982 260.058 212.241 257.779 209.822C255.501 207.403 258.029 206.43 253.216 205.809C248.403 205.188 250.266 205.579 247.309 203.448C244.352 201.316 244.954 201.323 241.491 199.8C238.029 198.276 240.051 197.7 236 197.361C233.203 197.124 228.781 198.596 226.483 200.235C225.466 200.958 224.947 202.155 223.923 202.795C222.79 203.518 221.03 202.155 221.216 204.593C221.339 205.215 221.367 205.851 221.299 206.481C220.973 207.851 215.334 207.844 213.901 208.273C213.559 208.334 213.253 208.522 213.043 208.798C212.717 209.38 213.21 210.411 212.576 210.622C212.378 210.692 212.154 210.622 211.936 210.654C211.174 210.801 211.373 212.171 210.656 212.484C209.939 212.798 209.114 212.158 208.32 212.484C207.712 212.715 207.507 213.534 206.976 213.86C206.048 214.424 205.088 214.84 204.173 215.441C202.586 216.478 201.21 217.752 199.507 218.641L194.95 219.883L193.587 220.363L271.789 220.376Z" fill="white"/>
<path d="M218.08 208.728C218.083 208.774 218.083 208.821 218.08 208.868C218.061 211.036 217.431 213.155 216.262 214.98C216.166 215.128 216.07 215.275 215.962 215.422C215.29 216.376 214.479 217.224 213.555 217.937C213.35 218.104 213.137 218.26 212.915 218.404C212.865 218.443 212.811 218.477 212.755 218.507L212.544 218.641C212.435 218.715 212.321 218.784 212.205 218.846C212.026 218.948 211.84 219.051 211.654 219.14C209.426 220.262 206.896 220.637 204.438 220.208C201.98 219.779 199.726 218.57 198.01 216.76C197.227 215.951 196.569 215.03 196.058 214.027C195.214 212.386 194.775 210.566 194.778 208.721V208.683C194.778 208.356 194.778 208.043 194.822 207.71C194.947 206.209 195.367 204.748 196.058 203.409C196.228 203.073 196.416 202.746 196.621 202.43C197.291 201.39 198.121 200.462 199.078 199.678C199.382 199.429 199.701 199.198 200.032 198.987C200.148 198.904 200.267 198.827 200.39 198.756C201.306 198.193 202.298 197.762 203.334 197.476L203.603 197.406C204.529 197.176 205.479 197.06 206.432 197.06C206.731 197.06 207.025 197.073 207.315 197.099H207.539C208.833 197.222 210.097 197.563 211.277 198.11L211.424 198.18C213.176 199.01 214.693 200.264 215.836 201.828C216.98 203.393 217.714 205.219 217.971 207.14C218.046 207.666 218.083 208.197 218.08 208.728Z" fill="#C1CB9C"/>
<path opacity="0.6" d="M218.08 208.728C218.082 210.893 217.479 213.016 216.339 214.857C215.199 216.698 213.568 218.183 211.629 219.147C211.363 218.932 211.145 218.664 210.989 218.36C213.139 212.088 210.989 208.728 210.989 208.728V208.664L211.142 207.659V207.473C211.475 205.611 212.314 202.123 214.131 200.011C215.37 201.101 216.363 202.441 217.044 203.944C217.725 205.447 218.078 207.078 218.08 208.728Z" fill="white"/>
<path opacity="0.6" d="M197.498 206.712C197.498 206.712 195.456 208.753 196.058 214.033C194.841 211.657 194.477 208.936 195.027 206.324C195.577 203.712 197.007 201.368 199.078 199.684C197.949 201.849 197.404 204.272 197.498 206.712Z" fill="white"/>
<path opacity="0.2" d="M214.163 200.011C211.603 202.98 210.963 208.728 210.963 208.728C203.923 210.449 197.478 206.712 197.478 206.712C197.385 204.267 197.93 201.841 199.059 199.672C201.203 197.927 203.898 197.002 206.662 197.062C209.425 197.122 212.077 198.163 214.144 199.998L214.163 200.011Z" fill="white"/>
<path opacity="0.2" d="M211.622 219.147C209.397 220.26 206.873 220.629 204.422 220.199C201.971 219.77 199.723 218.564 198.01 216.76C200.192 218.04 204.653 219.876 210.982 218.353C211.138 218.66 211.356 218.93 211.622 219.147Z" fill="white"/>
<g opacity="0.2">
<path d="M211.43 198.2C211.126 198.627 210.846 199.071 210.592 199.531C210.118 200.413 209.71 201.328 209.37 202.27C209.011 203.211 208.73 204.19 208.474 205.144C208.218 206.097 208 207.102 207.834 208.094C207.901 207.085 208.042 206.081 208.256 205.092C208.473 204.099 208.75 203.12 209.088 202.161C209.437 201.21 209.865 200.289 210.368 199.409C210.647 198.966 210.95 198.539 211.277 198.129L211.43 198.2Z" fill="black"/>
<path d="M207.539 197.124C207.379 197.412 207.232 197.707 207.091 198.001C206.621 198.994 206.234 200.023 205.933 201.08C205.594 202.129 205.338 203.204 205.094 204.28C204.851 205.355 204.646 206.443 204.454 207.531C204.52 206.423 204.652 205.32 204.851 204.228C205.043 203.135 205.299 202.053 205.619 200.99C205.938 199.919 206.356 198.88 206.867 197.886C207.008 197.624 207.155 197.361 207.309 197.112L207.539 197.124Z" fill="black"/>
<path d="M203.603 197.419L203.405 197.937C203.052 198.888 202.764 199.86 202.541 200.849C202.291 201.835 202.099 202.833 201.901 203.838C201.702 204.843 201.562 205.848 201.414 206.859C201.437 205.835 201.52 204.814 201.664 203.8C201.804 202.777 201.996 201.763 202.24 200.76C202.474 199.757 202.789 198.774 203.181 197.822C203.232 197.707 203.283 197.585 203.341 197.47L203.603 197.419Z" fill="black"/>
<path d="M200.39 198.763C200.173 199.48 199.968 200.196 199.821 200.926C199.674 201.656 199.501 202.564 199.373 203.39C199.245 204.216 199.155 205.048 199.078 205.886C199.035 205.045 199.052 204.203 199.13 203.364C199.211 202.524 199.337 201.689 199.507 200.862C199.65 200.231 199.825 199.607 200.032 198.993C200.148 198.911 200.267 198.834 200.39 198.763Z" fill="black"/>
<path d="M214.259 212.612C214.293 213.818 214.135 215.021 213.792 216.177C213.621 216.753 213.407 217.316 213.152 217.86C213.069 218.046 212.973 218.232 212.877 218.411C212.826 218.449 212.773 218.484 212.717 218.513C213.067 217.741 213.344 216.937 213.542 216.113C213.842 214.974 213.972 213.796 213.926 212.619C213.908 211.441 213.727 210.272 213.389 209.144C213.057 208.003 212.584 206.909 211.981 205.886C212.696 206.857 213.249 207.938 213.619 209.086C214.009 210.223 214.225 211.411 214.259 212.612Z" fill="black"/>
<path d="M216.557 212.28L216.525 213.246L216.39 214.206C216.362 214.467 216.317 214.725 216.256 214.98C216.16 215.128 216.064 215.275 215.955 215.422C216.051 215.012 216.115 214.594 216.147 214.174L216.243 213.227V212.28C216.266 211.962 216.266 211.644 216.243 211.326C216.211 211.012 216.211 210.686 216.154 210.385C216.008 209.126 215.691 207.892 215.213 206.718C214.751 205.531 214.117 204.418 213.331 203.416C214.217 204.349 214.93 205.433 215.437 206.616C215.96 207.801 216.309 209.055 216.474 210.34C216.525 210.66 216.518 210.98 216.544 211.307C216.571 211.63 216.575 211.955 216.557 212.28Z" fill="black"/>
<path d="M218.08 208.728C218.083 208.775 218.083 208.822 218.08 208.868L218.042 208.651C217.769 207.324 217.34 206.035 216.762 204.811C216.195 203.571 215.449 202.422 214.547 201.4C215.543 202.351 216.366 203.469 216.979 204.702C217.386 205.502 217.724 206.335 217.99 207.192C218.056 207.701 218.086 208.214 218.08 208.728Z" fill="black"/>
<path d="M196.928 204.868C196.414 205.453 195.973 206.097 195.616 206.788C195.283 207.404 195.003 208.046 194.778 208.708C194.778 208.382 194.778 208.068 194.822 207.736C194.994 207.365 195.188 207.006 195.405 206.66C195.804 205.979 196.319 205.372 196.928 204.868Z" fill="black"/>
<path d="M197.478 201.771C196.992 202.321 196.518 202.865 196.058 203.416C196.228 203.079 196.416 202.752 196.621 202.436C196.894 202.199 197.18 201.976 197.478 201.771Z" fill="black"/>
<path d="M197.478 209.182C198.541 209.592 199.616 209.95 200.678 210.27C201.764 210.592 202.867 210.855 203.981 211.057C206.199 211.535 208.496 211.507 210.701 210.974C209.627 211.376 208.493 211.593 207.347 211.614C206.2 211.637 205.053 211.546 203.923 211.345C202.799 211.133 201.691 210.842 200.608 210.475C199.534 210.124 198.487 209.692 197.478 209.182Z" fill="black"/>
<path d="M197.478 211.966C198.548 212.39 199.642 212.75 200.755 213.041C201.865 213.334 202.994 213.548 204.134 213.681C205.271 213.837 206.419 213.89 207.565 213.841L208.422 213.803L209.28 213.7C209.856 213.662 210.406 213.496 210.982 213.412C209.879 213.776 208.736 214.004 207.578 214.091C206.417 214.173 205.251 214.143 204.096 214.001C202.944 213.849 201.805 213.605 200.691 213.272C199.581 212.941 198.505 212.504 197.478 211.966Z" fill="black"/>
<path d="M197.76 214.372C198.767 214.842 199.809 215.231 200.877 215.537C201.941 215.842 203.028 216.056 204.128 216.177C204.678 216.267 205.229 216.28 205.779 216.318C206.33 216.356 206.886 216.318 207.443 216.286C208.551 216.224 209.652 216.065 210.733 215.812C209.676 216.184 208.578 216.427 207.462 216.536C206.34 216.648 205.209 216.635 204.09 216.497C202.973 216.359 201.873 216.111 200.806 215.755C199.741 215.412 198.719 214.949 197.76 214.372Z" fill="black"/>
<path d="M198.24 216.184C199.19 216.623 200.172 216.989 201.178 217.278C202.178 217.577 203.201 217.791 204.237 217.918C205.27 218.072 206.318 218.112 207.36 218.04L208.141 217.982L208.909 217.854C209.434 217.803 209.926 217.624 210.445 217.521C209.463 217.918 208.432 218.176 207.379 218.289C206.316 218.416 205.242 218.416 204.179 218.289C203.128 218.155 202.092 217.917 201.088 217.579C200.088 217.226 199.132 216.757 198.24 216.184Z" fill="black"/>
</g>
<path d="M72.8256 190.417C72.8256 190.417 75.104 186.993 79.1552 186.744C83.2064 186.494 86.624 191.659 86.624 191.659H85.344C85.344 191.659 82.0736 188.132 79.7312 188.132C77.3888 188.132 75.1104 191.044 75.1104 191.044L72.8256 190.417Z" fill="#263238"/>
<path d="M38.4512 217.438C39.8528 215.102 55.552 216.619 59.0976 215.224L61.0176 218.52C61.0176 218.52 58.3104 220.017 53.8176 219.486C49.3248 218.955 42.5344 218.814 40.7616 220.376L38.4512 217.438Z" fill="#263238"/>
<path opacity="0.3" d="M38.4512 217.438C39.8528 215.102 55.552 216.619 59.0976 215.224L61.0176 218.52C61.0176 218.52 58.3104 220.017 53.8176 219.486C49.3248 218.955 42.5344 218.814 40.7616 220.376L38.4512 217.438Z" fill="black"/>
<path d="M104.576 210.315C104.448 210.872 104.307 211.416 104.147 211.947C102.867 216.305 100.896 219.832 99.4624 220.376H58.7648C58.2052 220.376 57.653 220.248 57.1504 220.001C56.6479 219.755 56.2084 219.397 55.8656 218.955L55.8336 218.91C55.6833 218.712 55.5566 218.497 55.456 218.27C52.6464 212.401 49.8112 200.664 53.7984 195.313C54.2155 194.755 54.6966 194.248 55.232 193.803L55.3472 193.713C56.1917 193.024 57.1261 192.454 58.1248 192.017H58.1568C60.96 190.737 64.4032 190.168 67.7568 189.918C68.736 189.841 69.6768 189.796 70.6624 189.777C73.1584 189.707 75.488 189.777 77.344 189.822C83.8848 189.988 89.0304 191.934 92.5376 191.595C93.8256 191.46 95.1274 191.564 96.3776 191.902C96.7377 192.003 97.0923 192.123 97.44 192.26C99.0361 192.935 100.521 193.848 101.843 194.968C105.85 198.148 105.907 204.67 104.576 210.315Z" fill="#263238"/>
<path opacity="0.1" d="M104.576 210.315C104.448 210.872 104.307 211.416 104.147 211.947C102.867 216.305 100.896 219.832 99.4624 220.376H58.7648C58.2052 220.376 57.653 220.248 57.1504 220.001C56.6479 219.755 56.2084 219.397 55.8656 218.955L55.8336 218.91C55.6833 218.712 55.5566 218.497 55.456 218.27C52.6464 212.401 49.8112 200.664 53.7984 195.313C54.2155 194.755 54.6966 194.248 55.232 193.803L55.3472 193.713C56.1917 193.024 57.1261 192.454 58.1248 192.017H58.1568C60.96 190.737 64.4032 190.168 67.7568 189.918C68.736 189.841 69.6768 189.796 70.6624 189.777C73.1584 189.707 75.488 189.777 77.344 189.822C83.8848 189.988 89.0304 191.934 92.5376 191.595C93.8256 191.46 95.1274 191.564 96.3776 191.902C96.7377 192.003 97.0923 192.123 97.44 192.26C99.0361 192.935 100.521 193.848 101.843 194.968C105.85 198.148 105.907 204.67 104.576 210.315Z" fill="white"/>
<path opacity="0.2" d="M98.3424 209.912C95.4304 209.912 89.6064 211.3 80.9984 209.406C76.9851 208.453 72.8077 208.422 68.7808 209.316C68.6848 208.036 68.5824 206.609 68.4672 205.06C67.7056 194.66 61.7728 190.296 58.1568 192.024H58.1248C57.1437 192.493 56.213 193.061 55.3472 193.72L55.232 193.809C54.6966 194.255 54.2155 194.762 53.7984 195.32C49.8112 200.67 52.6464 212.408 55.456 218.276C55.5566 218.504 55.6833 218.719 55.8336 218.916L55.8656 218.961C56.2115 219.354 56.637 219.668 57.1137 219.883C57.5904 220.098 58.1074 220.209 58.6304 220.209H65.92C68.896 220.209 69.248 217.483 68.9152 211.627C69.4208 211.339 70.0416 210.987 70.7328 210.513C72.544 209.336 79.5904 209.918 82.6304 211.057C85.6704 212.196 93.6448 212.702 97.504 212.075C99.6997 211.749 101.928 211.708 104.134 211.953C104.294 211.422 104.435 210.878 104.563 210.321C103.245 210.174 100.48 209.912 98.3424 209.912Z" fill="black"/>
<path opacity="0.2" d="M71.8848 195.224C73.6576 201.681 74.8736 203.96 75.3408 204.593C75.808 205.227 88.6976 206.756 91.1168 206.75C93.909 206.726 96.6934 206.451 99.4368 205.931C101.082 205.515 101.613 197.233 97.4656 192.267C97.1178 192.129 96.7633 192.01 96.4032 191.908C98.6624 196.977 98.7136 203.185 98.4448 204.068C98.0608 205.297 94.2656 205.118 92.4928 205.08C90.72 205.041 79.6928 204.356 78.5664 203.908C77.4788 203.457 76.553 202.687 75.9104 201.7C75.0208 200.561 74.8992 196.638 73.2928 193.252C72.6109 191.966 71.7223 190.801 70.6624 189.803C69.7088 189.803 68.7424 189.867 67.7568 189.944C68.7689 190.495 69.6573 191.248 70.3672 192.156C71.0772 193.065 71.5937 194.108 71.8848 195.224Z" fill="black"/>
<path d="M59.0976 201.169L55.552 202.04C55.552 202.04 53.0368 209.259 54.5408 212.28C56.0448 215.3 44.3008 219.505 38.4512 217.4L40.7424 220.337C40.7424 220.337 54.6688 219.46 57.3248 214.161C59.9808 208.862 56.1856 208.043 55.936 206.552C55.6864 205.06 59.0976 201.169 59.0976 201.169Z" fill="#263238"/>
<path opacity="0.1" d="M59.0976 201.169L55.552 202.04C55.552 202.04 53.0368 209.259 54.5408 212.28C56.0448 215.3 44.3008 219.505 38.4512 217.4L40.7424 220.337C40.7424 220.337 54.6688 219.46 57.3248 214.161C59.9808 208.862 56.1856 208.043 55.936 206.552C55.6864 205.06 59.0976 201.169 59.0976 201.169Z" fill="white"/>
<path d="M90.4128 52.2797C90.4128 52.2797 76.7168 44.5997 73.8816 42.6285C71.0464 40.6573 55.8784 25.7645 55.0336 25.3485C55.0336 25.3485 55.5968 23.6461 54.3232 22.6541C53.0496 21.6621 48.0832 18.4045 47.3792 18.4045C46.6752 18.4045 44.8192 25.3485 45.1072 27.0509C45.3952 28.7533 52.3392 29.1757 52.3392 29.1757C52.3392 29.1757 66.7968 46.0077 69.0624 48.3757C71.328 50.7437 86.7776 60.7981 86.7776 60.7981L90.4128 52.2797Z" fill="#FFD4CD"/>
<path d="M96.032 53.6941C96.032 53.6941 99.0336 59.7549 91.744 69.3805L75.6736 57.5661L82.0736 45.9501L96.032 53.6941Z" fill="#C1CB9C"/>
<path opacity="0.6" d="M91.744 69.3805L84.1536 63.7997L83.1616 63.0701L78.88 59.9597L75.68 57.5981L78.0416 53.3293L79.36 50.8717L82.08 45.9501L84.704 47.4093L86.9696 48.6893L96.0192 53.7197C96.3164 54.4222 96.5 55.1675 96.5632 55.9277C96.864 58.4813 96.4288 63.1917 91.744 69.3805Z" fill="white"/>
<path opacity="0.2" d="M91.744 69.3805L84.1536 63.7997C86.7584 58.4109 93.4976 56.5101 96.576 55.9021C96.864 58.4813 96.4288 63.1917 91.744 69.3805Z" fill="black"/>
<g opacity="0.2">
<path d="M86.9824 48.6637L84.7168 49.9821V47.4093L86.9824 48.6637Z" fill="white"/>
<path d="M82.0544 51.6653L79.2128 55.6525L78.0352 53.2973L79.3728 50.8717L82.0544 51.6653Z" fill="white"/>
<path d="M84.1536 57.6622L83.1616 63.0702L78.88 59.9278L84.1536 57.6622Z" fill="white"/>
<path d="M86.1184 54.5773L87.6992 58.6285L90.9824 54.1613L86.1184 54.5773Z" fill="white"/>
</g>
<path d="M125.901 50.8269C125.901 50.8269 139.597 43.1469 142.432 41.1757C145.267 39.2045 160.435 24.3117 161.286 23.8957C161.286 23.8957 160.717 22.1933 161.99 21.2013C163.264 20.2093 168.23 16.9517 168.934 16.9517C169.638 16.9517 171.494 23.8957 171.206 25.5981C170.918 27.3005 163.974 27.7229 163.974 27.7229C163.974 27.7229 149.517 44.5613 147.251 46.9229C144.986 49.2845 129.536 59.3197 129.536 59.3197L125.901 50.8269Z" fill="#FFD4CD"/>
<path d="M109.536 131.928C109.536 131.928 109.242 136.76 108.8 143.224C108.506 147.243 108.16 151.883 107.744 156.369C107.206 162.398 106.598 168.145 105.99 171.729C105.434 175.013 98.0416 215.787 98.0416 215.787H93.088C94.6496 177.765 97.0688 163.019 97.1584 160.805C97.1584 160.081 97.216 159.077 97.248 157.88C97.344 153.541 97.4272 146.686 97.4784 141.701C97.5168 138.104 97.536 135.486 97.536 135.486L109.536 131.928Z" fill="#FFD4CD"/>
<path d="M128.64 162.692C128.467 166.014 126.49 215.608 126.49 215.608H121.043C118.259 176.107 119.315 162.392 118.816 159.652C117.965 154.993 117.165 148.868 116.614 144.292C116.173 140.638 115.898 138.008 115.898 138.008L127.002 133.208C127.002 133.208 127.674 138.968 128.179 145.867C128.429 149.323 128.646 153.08 128.71 156.574C128.762 158.763 128.749 160.849 128.64 162.692Z" fill="#FFD4CD"/>
<path opacity="0.2" d="M97.4528 141.688L108.8 143.224C108.506 147.243 108.16 151.883 107.744 156.369L97.2224 157.88C97.3184 153.528 97.4016 146.673 97.4528 141.688Z" fill="black"/>
<path opacity="0.2" d="M128.717 156.6L118.822 159.646C117.971 154.987 117.171 148.862 116.621 144.286L128.186 145.861C128.435 149.323 128.64 153.08 128.717 156.6Z" fill="black"/>
<path d="M99.2 214.251H92.6528C92.5456 214.252 92.4419 214.29 92.3584 214.357C92.2749 214.424 92.2163 214.518 92.192 214.622L91.136 219.409C91.0923 219.615 91.1317 219.829 91.2457 220.005C91.3596 220.182 91.5388 220.306 91.744 220.35C91.8036 220.356 91.8636 220.356 91.9232 220.35C94.0352 220.318 95.5776 220.184 98.2272 220.184C99.8656 220.184 104.8 220.356 107.053 220.356C109.306 220.356 109.613 218.129 108.685 217.918C104.538 217.016 101.414 215.768 100.09 214.577C99.8457 214.359 99.5274 214.242 99.2 214.251Z" fill="#C1CB9C"/>
<path d="M126.899 214.084H120.365C120.258 214.083 120.154 214.119 120.07 214.185C119.986 214.252 119.927 214.345 119.904 214.449L118.842 219.243C118.821 219.347 118.822 219.454 118.843 219.557C118.864 219.661 118.906 219.759 118.965 219.847C119.025 219.934 119.101 220.009 119.19 220.067C119.278 220.125 119.378 220.164 119.482 220.184H119.654C121.773 220.152 123.309 220.024 125.965 220.024C127.597 220.024 132.531 220.19 134.79 220.19C137.05 220.19 137.35 217.963 136.416 217.758C132.269 216.856 129.152 215.601 127.827 214.411C127.702 214.298 127.555 214.211 127.396 214.155C127.237 214.099 127.068 214.075 126.899 214.084Z" fill="#C1CB9C"/>
<path d="M109.984 153.573C110.035 153.137 110.086 152.683 110.138 152.171C110.778 145.617 111.475 137.752 112.058 130.174C114.266 136.113 115.219 144.465 116.371 153.573H129.811C128.698 130.001 125.779 110.827 124.23 102.648H95.7248C95.6864 105.579 95.36 134.008 94.624 153.573H109.984Z" fill="#263238"/>
<path opacity="0.2" d="M109.984 153.573C110.035 153.137 110.086 152.683 110.138 152.171C110.778 145.617 111.475 137.752 112.058 130.174C114.266 136.113 115.219 144.465 116.371 153.573H129.811C128.698 130.001 125.779 110.827 124.23 102.648H95.7248C95.6864 105.579 95.36 134.008 94.624 153.573H109.984Z" fill="white"/>
<path d="M113.92 44.2733C113.858 44.5313 113.781 44.7856 113.69 45.0349C113.18 46.458 112.252 47.6939 111.027 48.5805C110.719 48.8064 110.394 49.0075 110.054 49.1821C108.757 49.8763 107.267 50.127 105.814 49.8959C104.36 49.6648 103.022 48.9646 102.003 47.9021C99.3088 45.1821 99.3792 42.0397 99.072 36.7213C98.9908 35.5784 99.177 34.4324 99.616 33.3741C99.9831 32.4906 100.521 31.6882 101.198 31.0125C101.875 30.3369 102.679 29.8013 103.564 29.4364C104.448 29.0715 105.395 28.8844 106.352 28.8857C107.309 28.8871 108.256 29.077 109.139 29.4445C114.336 31.5693 115.053 39.4797 113.92 44.2733Z" fill="#FFD4CD"/>
<path opacity="0.2" d="M111.008 48.5805C110.7 48.8064 110.375 49.0076 110.035 49.1821C109.144 49.6573 108.158 49.9269 107.149 49.9712C106.14 50.0155 105.134 49.8334 104.205 49.4381C104.446 48.7989 104.766 48.1925 105.158 47.6333C107.159 47.3825 109.189 47.7112 111.008 48.5805Z" fill="black"/>
<path d="M100.301 55.4796C102.925 57.8604 109.344 56.9836 109.344 56.9836C109.344 56.9836 113.35 55.8828 112.506 54.6348C110.15 54.2444 109.005 53.1436 108.531 51.7292C108.276 50.8555 108.195 49.9398 108.294 49.0348C108.332 48.5302 108.398 48.028 108.493 47.5308L100.557 41.6556C101.594 45.534 102.867 52.67 100.301 55.4796Z" fill="#FFD4CD"/>
<path d="M111.008 39.4349L112.154 39.8637L111.584 37.5213C111.584 37.5213 113.261 34.9613 111.584 32.7405C111.584 32.7405 116.218 31.3325 113.6 28.9005C112.627 27.9917 111.418 28.9005 108.218 27.5117C106.483 26.7501 101.056 26.6925 100.787 28.9005C100.787 28.9005 96.8768 28.9005 96.4544 35.5565C96.3309 37.5067 96.6378 39.4601 97.3534 41.2783C98.069 43.0966 99.1757 44.7353 100.595 46.0781C100.595 46.0781 105.318 47.1917 107.635 45.2973C109.952 43.4029 111.008 39.4349 111.008 39.4349Z" fill="#263238"/>
<path d="M107.987 39.8125C108.087 40.3128 108.297 40.7846 108.603 41.1932C108.909 41.6018 109.302 41.9369 109.754 42.1741C110.835 42.6349 111.552 41.1117 111.392 39.5117C111.245 38.0909 110.509 36.0941 109.35 36.3629C108.192 36.6317 107.61 38.3789 107.987 39.8125Z" fill="#FFD4CD"/>
<path opacity="0.2" d="M112.083 130.142C111.475 137.72 110.803 145.605 110.163 152.158C109.19 142.693 108 135.947 108 135.947C108 135.947 106.886 135.032 103.821 130.142C100.755 125.253 103.821 116.113 103.821 116.113C103.68 124.6 112.083 130.142 112.083 130.142Z" fill="black"/>
<path d="M130.803 152.465L130.214 154.686H115.904V152.632L130.803 152.465Z" fill="#C1CB9C"/>
<path d="M110.675 152.772L110.246 154.827H94.0416L93.0624 152.772H110.675Z" fill="#C1CB9C"/>
<path d="M112.672 53.9373C112.672 53.9373 110.342 50.2573 104.474 49.9949C98.6048 49.7325 98.1568 53.7709 98.1568 53.7709L112.672 53.9373Z" fill="#C1CB9C"/>
<path opacity="0.5" d="M112.672 53.9373C112.672 53.9373 110.342 50.2573 104.474 49.9949C98.6048 49.7325 98.1568 53.7709 98.1568 53.7709L112.672 53.9373Z" fill="white"/>
<path d="M91.5968 51.6396C93.367 71.5646 93.1526 91.6162 90.9568 111.499L125.344 109.4C124.96 74.3084 120.256 52.2029 120.256 52.2029C120.256 52.2029 111.392 54.0652 104.179 53.7964C99.9123 53.5983 95.6861 52.8739 91.5968 51.6396Z" fill="#C1CB9C"/>
<path d="M120.282 52.2285C120.282 52.2285 124.877 62.9677 125.37 73.8349C125.862 84.7021 106.707 99.6397 106.707 99.6397C106.707 99.6397 91.9424 89.4765 80.5504 90.3981C69.1584 91.3197 65.6128 95.3709 65.6128 95.3709C65.6128 95.3709 74.4704 76.4205 89.8944 69.8157C89.8944 69.8157 86.6944 58.9037 91.5968 51.6909C91.5968 51.6397 102.259 55.1341 120.282 52.2285Z" fill="#C1CB9C"/>
<path opacity="0.6" d="M125.37 73.8348C125.386 74.1418 125.386 74.4495 125.37 74.7564C125.343 75.2312 125.285 75.7037 125.197 76.1709C124.988 77.2701 124.66 78.3432 124.218 79.3709C122.85 82.3788 121.066 85.1796 118.918 87.6909C117.83 89.0221 116.678 90.3021 115.539 91.4925C112.78 94.402 109.829 97.1238 106.707 99.6397C102.83 97.0729 98.707 94.8969 94.4 93.1437C93.088 92.6189 91.7248 92.1261 90.336 91.7101C87.1819 90.689 83.8674 90.2552 80.5568 90.43C77.3969 90.6404 74.2765 91.2511 71.2704 92.2477C70.752 92.4268 70.272 92.6189 69.8304 92.8045L69.4336 92.9772C68.4717 93.3943 67.5541 93.9068 66.6944 94.5068C66.5984 94.5709 66.5088 94.6412 66.4256 94.7052C66.3424 94.7692 66.1248 94.9356 66.0096 95.0381L65.856 95.1725C65.8168 95.2033 65.7804 95.2376 65.7472 95.2748L65.6704 95.3517L65.6256 95.3965C65.6256 95.3644 65.7024 95.2301 65.8176 94.9997L65.9968 94.6476C66.176 94.2892 66.4256 93.8092 66.752 93.2268L66.8928 92.9709L67.1424 92.5293C67.2256 92.3757 67.3152 92.2156 67.4112 92.0556C67.7824 91.4156 68.2176 90.6732 68.6912 89.886C71.322 85.6291 74.436 81.6904 77.9712 78.1484C79.2316 76.8952 80.5652 75.7177 81.9648 74.6221C84.3839 72.6967 87.043 71.0939 89.8752 69.8541C89.141 67.0435 88.8071 64.1435 88.8832 61.2396C88.9019 60.325 88.9767 59.4123 89.1072 58.5068C89.4007 56.0574 90.2525 53.7081 91.5968 51.6396C93.1695 52.0968 94.7739 52.437 96.3968 52.6572C98.5177 52.9807 100.654 53.1943 102.797 53.2972C107.107 53.4902 111.426 53.3382 115.712 52.8429C117.171 52.685 118.688 52.4717 120.262 52.2029L120.41 52.5613C121.428 55.1162 122.306 57.7249 123.04 60.3756C123.322 61.3932 123.603 62.4812 123.872 63.6205C124.141 64.7597 124.346 65.7773 124.55 66.91C124.974 69.1981 125.247 71.5112 125.37 73.8348Z" fill="white"/>
<g opacity="0.2">
<path d="M120.96 82.5581L118.938 87.7293C117.85 89.0605 116.698 90.3405 115.558 91.5309L111.443 83.8509L120.96 82.5581Z" fill="white"/>
<path d="M86.1184 77.6173L77.9904 78.0845C79.2508 76.8312 80.5844 75.6537 81.984 74.5581L86.1184 77.6173Z" fill="white"/>
<path d="M95.4944 57.1437L94.624 65.5917L88.864 61.2333C88.8827 60.3187 88.9575 59.406 89.088 58.5005L95.4944 57.1437Z" fill="white"/>
<path d="M98.1568 79.403L95.4944 71.2878L103.59 69.7902L98.1568 79.403Z" fill="white"/>
<path d="M112.083 71.6718V77.7453L117.894 75.659L112.083 71.6718Z" fill="white"/>
<path d="M97.1328 89.2653L94.4 93.1053C93.088 92.5805 91.7248 92.0877 90.336 91.6717L88.2752 86.9741L97.1328 89.2653Z" fill="white"/>
<path d="M76.3712 83.4413L80.5504 85.2141L76.3712 88.0621V83.4413Z" fill="white"/>
<path d="M71.264 92.1902C67.104 93.643 65.6128 95.3453 65.6128 95.3453C66.5415 93.4513 67.5735 91.6096 68.704 89.8286L71.264 92.1902Z" fill="white"/>
<path d="M105.414 84.3309L101.818 88.0621L107.258 89.0157L105.414 84.3309Z" fill="white"/>
<path d="M105.414 60.9069L109.645 66.6029L112.672 60.1517L105.414 60.9069Z" fill="white"/>
<path d="M124.57 66.9358L119.162 63.3774L123.059 60.4014C123.61 62.3726 124.16 64.5934 124.57 66.9358Z" fill="white"/>
<path d="M125.363 74.7565C125.247 76.3576 124.857 77.9269 124.211 79.3965L121.946 73.8221L125.363 74.7565Z" fill="white"/>
<path d="M120.429 52.5869L117.005 56.1197L115.725 52.8685C117.184 52.7106 118.701 52.4973 120.275 52.2285L120.429 52.5869Z" fill="white"/>
<path d="M102.816 53.3037L100.301 58.6285L96.3968 52.6829C98.5244 53.0006 100.667 53.2078 102.816 53.3037Z" fill="white"/>
</g>
<path opacity="0.2" d="M125.37 73.8349C125.386 74.1419 125.386 74.4495 125.37 74.7565C125.343 75.2312 125.285 75.7037 125.197 76.1709C120.717 69.0669 121.779 62.6413 121.779 62.6413L123.898 63.6461C124.141 64.7021 124.371 65.8029 124.576 66.9357C124.99 69.2158 125.255 71.5204 125.37 73.8349Z" fill="black"/>
<path d="M107.219 23.9469C114.816 21.3293 116.723 31.4477 109.178 38.2893C101.632 45.1309 92.9664 45.9693 91.9808 42.5005C90.9952 39.0317 95.6224 27.9597 107.219 23.9469Z" fill="#C1CB9C"/>
<path d="M99.6096 23.4349C103.507 23.4349 109.043 27.4029 109.043 27.4029C109.043 27.4029 109.837 31.6269 105.952 35.3389C102.067 39.0509 98.56 39.6397 96.3968 38.1997C94.2336 36.7597 93.632 31.1597 93.632 31.1597C93.8292 30.4973 94.1836 29.8924 94.665 29.3965C95.1464 28.9006 95.7406 28.5284 96.3968 28.3117C96.3968 28.3117 97.0368 23.4797 99.6096 23.4349Z" fill="#C1CB9C"/>
<path opacity="0.2" d="M105.952 35.339C102.067 39.051 98.5728 39.6397 96.3968 38.2061C96.0176 37.9399 95.6955 37.6005 95.4496 37.2078C94.0416 35.0893 93.632 31.179 93.632 31.179C97.344 35.659 101.645 31.0318 102.24 27.9086C102.416 27.1667 102.418 26.3942 102.246 25.6514C102.074 24.9086 101.733 24.2157 101.248 23.627C103.808 24.1774 106.611 25.8158 108.058 26.7438C108.698 27.1342 109.043 27.3838 109.043 27.3838C109.043 27.3838 109.837 31.627 105.952 35.339Z" fill="black"/>
<path opacity="0.6" d="M105.952 35.3389C102.067 39.0509 98.5728 39.6397 96.3968 38.2061C96.0176 37.9399 95.6955 37.6004 95.4496 37.2077C99.3408 38.3661 103.974 36.4397 106.464 32.9773C107.784 31.185 108.356 28.9497 108.058 26.7437C108.698 27.1341 109.043 27.3837 109.043 27.3837C109.043 27.3837 109.837 31.6269 105.952 35.3389Z" fill="white"/>
<path d="M120.282 52.2285C120.282 52.2285 117.28 58.2957 124.57 67.9149L140.64 56.1197L134.24 44.5037L120.282 52.2285Z" fill="#C1CB9C"/>
<path opacity="0.6" d="M140.64 56.1198L136.448 59.1982L130.246 63.7614L124.57 67.9342C124.198 67.4478 123.859 66.9678 123.539 66.5006C122.889 65.5484 122.299 64.5566 121.773 63.531C120.475 61.1483 119.758 58.4928 119.68 55.7806C119.637 54.5644 119.855 53.3531 120.32 52.2286L123.891 50.2446L130.042 46.8334L132.742 45.3294L134.266 44.4846L140.64 56.1198Z" fill="white"/>
<g opacity="0.2">
<path d="M136.448 59.179L130.246 63.7422L127.514 57.6622L136.448 59.179Z" fill="white"/>
<path d="M135.872 49.3996L130.15 51.6652L130.003 46.8332L132.704 45.3292L135.872 49.3996Z" fill="white"/>
<path d="M125.901 54.1612L119.68 55.7804C119.637 54.5643 119.855 53.353 120.32 52.2284L123.891 50.2444L125.901 54.1612Z" fill="white"/>
<path d="M124.57 61.9246L123.52 66.4814C122.87 65.5292 122.28 64.5374 121.754 63.5118L124.57 61.9246Z" fill="white"/>
</g>
<path d="M164.122 161.47L154.24 160.689L157.504 119.019L167.418 119.793L164.122 161.47ZM156.269 158.91L162.355 159.384L165.318 121.541L159.238 121.067L156.269 158.91Z" fill="#263238"/>
<path d="M157.293 215.185L158.573 215.288C158.929 215.283 159.283 215.352 159.611 215.491C159.939 215.63 160.234 215.837 160.478 216.097C160.721 216.357 160.908 216.665 161.026 217.001C161.144 217.337 161.19 217.695 161.162 218.05C161.134 218.405 161.032 218.751 160.862 219.064C160.693 219.378 160.46 219.652 160.178 219.871C159.897 220.089 159.572 220.246 159.227 220.332C158.881 220.418 158.521 220.431 158.17 220.369L156.89 220.267C156.533 220.273 156.179 220.204 155.851 220.066C155.522 219.927 155.226 219.721 154.982 219.461C154.738 219.201 154.55 218.894 154.432 218.557C154.314 218.221 154.267 217.863 154.294 217.508C154.322 217.152 154.424 216.807 154.593 216.493C154.762 216.179 154.995 215.904 155.277 215.685C155.559 215.466 155.883 215.309 156.229 215.223C156.575 215.137 156.935 215.124 157.286 215.185H157.293Z" fill="#263238"/>
<path opacity="0.1" d="M154.509 217.476C154.467 217.989 154.579 218.503 154.829 218.952C155.08 219.401 155.458 219.766 155.916 220C156.374 220.234 156.891 220.327 157.402 220.267C157.912 220.207 158.394 219.997 158.785 219.663C159.176 219.329 159.46 218.887 159.6 218.392C159.739 217.897 159.729 217.371 159.57 216.882C159.41 216.393 159.11 215.962 158.706 215.644C158.301 215.326 157.812 215.135 157.299 215.096C156.959 215.064 156.615 215.101 156.29 215.205C155.964 215.308 155.662 215.475 155.402 215.697C155.142 215.919 154.929 216.191 154.775 216.497C154.622 216.802 154.531 217.135 154.509 217.476Z" fill="white"/>
<path d="M150.304 214.641L151.584 214.737C151.941 214.731 152.294 214.8 152.623 214.939C152.951 215.077 153.247 215.283 153.492 215.543C153.736 215.803 153.923 216.111 154.042 216.447C154.16 216.783 154.207 217.141 154.179 217.496C154.151 217.852 154.05 218.198 153.88 218.511C153.711 218.825 153.478 219.1 153.197 219.319C152.915 219.538 152.591 219.695 152.245 219.781C151.899 219.867 151.538 219.88 151.187 219.819L149.907 219.723C149.551 219.729 149.197 219.66 148.868 219.522C148.54 219.383 148.244 219.177 148 218.917C147.755 218.658 147.568 218.35 147.45 218.013C147.331 217.677 147.284 217.319 147.312 216.964C147.34 216.608 147.442 216.263 147.611 215.949C147.78 215.635 148.013 215.36 148.294 215.141C148.576 214.922 148.9 214.765 149.246 214.679C149.592 214.593 149.953 214.58 150.304 214.641Z" fill="#263238"/>
<path opacity="0.2" d="M147.52 216.932C147.48 217.445 147.592 217.958 147.844 218.406C148.095 218.855 148.474 219.219 148.932 219.452C149.39 219.685 149.907 219.777 150.418 219.716C150.928 219.655 151.409 219.445 151.8 219.11C152.19 218.776 152.473 218.334 152.612 217.839C152.751 217.344 152.74 216.819 152.581 216.33C152.421 215.841 152.12 215.411 151.716 215.093C151.312 214.776 150.823 214.585 150.31 214.545C149.624 214.494 148.946 214.716 148.423 215.164C147.9 215.611 147.576 216.247 147.52 216.932Z" fill="white"/>
<path d="M149.139 215.409L159.042 216.185C159.99 216.26 160.818 215.551 160.893 214.603L165.608 154.417C165.683 153.469 164.974 152.64 164.026 152.566L154.124 151.79C153.176 151.716 152.347 152.424 152.273 153.372L147.557 213.559C147.483 214.507 148.191 215.335 149.139 215.409Z" fill="#263238"/>
<path opacity="0.2" d="M154.083 215.788L159.047 216.177C159.995 216.251 160.823 215.543 160.898 214.595L165.613 154.408C165.688 153.46 164.979 152.632 164.031 152.558L159.067 152.169C158.12 152.094 157.291 152.803 157.217 153.75L152.501 213.937C152.427 214.885 153.135 215.714 154.083 215.788Z" fill="white"/>
<path d="M157.966 120.414L166.318 121.083C167.025 121.139 167.644 120.612 167.701 119.905L167.764 119.118C167.82 118.411 167.293 117.792 166.586 117.735L158.234 117.067C157.527 117.011 156.908 117.538 156.852 118.245L156.789 119.032C156.732 119.739 157.259 120.358 157.966 120.414Z" fill="#263238"/>
<path opacity="0.2" d="M157.966 120.414L166.318 121.083C167.025 121.139 167.644 120.612 167.701 119.905L167.764 119.118C167.82 118.411 167.293 117.792 166.586 117.735L158.234 117.067C157.527 117.011 156.908 117.538 156.852 118.245L156.789 119.032C156.732 119.739 157.259 120.358 157.966 120.414Z" fill="white"/>
<path opacity="0.2" d="M158.158 121.246L158.854 121.3C159.558 121.355 160.174 120.828 160.229 120.124L160.291 119.339C160.346 118.634 159.819 118.018 159.114 117.963L158.419 117.909C157.714 117.854 157.098 118.38 157.043 119.085L156.982 119.87C156.927 120.575 157.453 121.191 158.158 121.246Z" fill="black"/>
<path d="M184.026 158.929L179.763 213.329C179.688 214.29 179.235 215.181 178.503 215.808C177.771 216.434 176.82 216.744 175.859 216.67L156.019 215.115C155.346 215.058 154.724 214.737 154.286 214.223C153.849 213.709 153.632 213.042 153.683 212.369L158.08 155.812C158.136 155.14 158.455 154.516 158.968 154.078C159.481 153.639 160.146 153.421 160.819 153.47L180.659 155.025C181.137 155.059 181.603 155.187 182.032 155.402C182.46 155.617 182.841 155.915 183.154 156.277C183.467 156.64 183.705 157.061 183.855 157.516C184.004 157.971 184.062 158.452 184.026 158.929Z" fill="#C1CB9C"/>
<path opacity="0.2" d="M184.026 158.929L179.763 213.329C179.688 214.29 179.235 215.181 178.503 215.808C177.771 216.434 176.82 216.744 175.859 216.67L156.019 215.115C155.346 215.058 154.724 214.737 154.286 214.223C153.849 213.709 153.632 213.042 153.683 212.369L158.08 155.812C158.136 155.14 158.455 154.516 158.968 154.078C159.481 153.639 160.146 153.421 160.819 153.47L180.659 155.025C181.137 155.059 181.603 155.187 182.032 155.402C182.46 155.617 182.841 155.915 183.154 156.277C183.467 156.64 183.705 157.061 183.855 157.516C184.004 157.971 184.062 158.452 184.026 158.929Z" fill="white"/>
<path opacity="0.2" d="M170.381 154.219V154.296L169.67 154.238C168.996 154.189 168.33 154.408 167.817 154.848C167.303 155.288 166.985 155.913 166.931 156.587L162.502 213.125C162.462 213.692 162.612 214.257 162.928 214.73C163.245 215.203 163.71 215.557 164.25 215.736L156 215.096C155.327 215.04 154.704 214.721 154.265 214.208C153.826 213.695 153.608 213.03 153.658 212.357L158.08 155.819C158.134 155.145 158.452 154.52 158.965 154.08C159.479 153.64 160.145 153.421 160.819 153.47L170.381 154.219Z" fill="black"/>
<path opacity="0.2" d="M170.213 156.201L169.919 156.178C169.535 156.148 169.2 156.434 169.17 156.819L164.827 212.246C164.797 212.63 165.084 212.965 165.468 212.995L165.761 213.018C166.145 213.049 166.481 212.762 166.511 212.377L170.854 156.951C170.884 156.566 170.597 156.231 170.213 156.201Z" fill="black"/>
<path opacity="0.2" d="M174.187 156.784L173.893 156.761C173.509 156.731 173.173 157.018 173.143 157.402L168.801 212.829C168.771 213.213 169.058 213.549 169.442 213.579L169.735 213.602C170.119 213.632 170.455 213.345 170.485 212.961L174.828 157.534C174.858 157.15 174.571 156.815 174.187 156.784Z" fill="black"/>
<path opacity="0.2" d="M178.163 157.023L177.869 157C177.485 156.97 177.149 157.257 177.119 157.641L172.776 213.068C172.746 213.452 173.033 213.788 173.417 213.818L173.711 213.841C174.095 213.871 174.431 213.584 174.461 213.2L178.804 157.773C178.834 157.389 178.547 157.053 178.163 157.023Z" fill="black"/>
<path opacity="0.2" d="M182.126 157.256L181.833 157.233C181.448 157.203 181.113 157.49 181.083 157.874L176.74 213.301C176.71 213.685 176.997 214.02 177.381 214.051L177.674 214.074C178.058 214.104 178.394 213.817 178.424 213.433L182.767 158.006C182.797 157.622 182.51 157.286 182.126 157.256Z" fill="black"/>
</svg>
